<?xml version="1.0" encoding="UTF-8" standalone="no"?>
<!-- Created with Inkscape (http://www.inkscape.org/) -->

<svg
  version="1.1"
  width="130.16"
  height="27.626667"
  viewBox="0 0 130.16 27.626667"
  xmlns="http://www.w3.org/2000/svg"
  xmlns:svg="http://www.w3.org/2000/svg">
  <defs
     id="03-04-04-defs1" />
  <g
     id="03-04-04-g1">
    <g
       id="03-04-04-g10"
       style="fill:none;stroke:#000000;stroke-opacity:1"
       class="has-stroke">
      <path
         id="03-04-04-path2"
         d="m 339.75,3.78125 h 298.883 v 199.258 H 339.75 Z"
         style="fill:none;stroke:#000000;stroke-width:7.9701;stroke-linecap:butt;stroke-linejoin:miter;stroke-miterlimit:10;stroke-dasharray:none;stroke-opacity:1"
         transform="matrix(0.13333333,0,0,-0.13333333,0,27.626667)" />
      <path
         id="03-04-04-path5"
         d="M 129.992,103.41 H 294.66"
         style="fill:none;stroke:#000000;stroke-width:7.9701;stroke-linecap:butt;stroke-linejoin:miter;stroke-miterlimit:10;stroke-dasharray:none;stroke-opacity:1"
         transform="matrix(0.13333333,0,0,-0.13333333,0,27.626667)" />
      <path
         id="03-04-04-path7"
         d="M 642.617,103.41 H 809.535"
         style="fill:none;stroke:#000000;stroke-width:7.9701;stroke-linecap:butt;stroke-linejoin:miter;stroke-miterlimit:10;stroke-dasharray:none;stroke-opacity:1"
         transform="matrix(0.13333333,0,0,-0.13333333,0,27.626667)" />
    </g>
    <g
       id="03-04-04-g9"
       style="display:inline;fill:#000000;fill-opacity:1;stroke:#000000;stroke-width:1;stroke-dasharray:none;stroke-opacity:1"
       class="has-fill  has-stroke">
      <path
         id="03-04-04-path6"
         d="M 324.414,103.41 282.883,119.117 296.652,103.41 282.883,87.7031 Z"
         style="fill:#000000;fill-opacity:1;fill-rule:nonzero;stroke:#000000;stroke-width:7.5;stroke-linecap:butt;stroke-linejoin:miter;stroke-miterlimit:10;stroke-dasharray:none;stroke-opacity:1"
         transform="matrix(0.13333333,0,0,-0.13333333,0,27.626667)" />
      <path
         id="03-04-04-path8"
         d="M 839.289,103.41 797.754,119.117 811.527,103.41 797.754,87.7031 Z"
         style="fill:#000000;fill-opacity:1;fill-rule:nonzero;stroke:#000000;stroke-width:7.5;stroke-linecap:butt;stroke-linejoin:miter;stroke-miterlimit:10;stroke-dasharray:none;stroke-opacity:1"
         transform="matrix(0.13333333,0,0,-0.13333333,0,27.626667)" />
    </g>
    <g
       id="03-04-04-g8"
       style="display:inline;fill:#000000;fill-opacity:1;stroke:none"
       transform="matrix(1.3333333,0,0,1.3333333,55.470267,17.15948)"
       class="has-fill">
      <path
         id="03-04-04-path3"
         d="m 2.92855,-6.3744928 c 0,-0.234375 0,-0.2578125 -0.234375,-0.2578125 -0.609375,0.6328125 -1.4882813,0.6328125 -1.8046875,0.6328125 v 0.3164062 c 0.1992187,0 0.7851562,0 1.3007812,-0.2578125 v 5.15625004 c 0,0.3515625 -0.035156,0.48046875 -0.9257812,0.48046875 H 0.94808125 V 5.071875e-4 C 1.2996437,-0.03464906 2.1551125,-0.03464906 2.55355,-0.03464906 c 0.3984375,0 1.265625,0 1.6171875,0.0351562475 V -0.30418031 H 3.8543312 c -0.9023437,0 -0.9257812,-0.1171875 -0.9257812,-0.48046875 z m 0,0"
         style="fill:#000000;fill-opacity:1;fill-rule:nonzero;stroke:none" />
      <path
         id="03-04-04-path4"
         d="m 9.3474953,-7.0893366 c 0.046875,-0.1289062 0.046875,-0.1757812 0.046875,-0.1875 0,-0.1054687 -0.082031,-0.1992187 -0.1992187,-0.1992187 -0.070312,0 -0.1289063,0.035156 -0.1640625,0.09375 L 5.5740578,2.1098822 c -0.046875,0.1289062 -0.046875,0.1757812 -0.046875,0.1875 0,0.1054687 0.082031,0.1992187 0.1992188,0.1992187 0.1289062,0 0.1523437,-0.070312 0.2109375,-0.2460937 z m 4.4970707,3.3632813 c -0.269532,0.011719 -0.46875,0.234375 -0.46875,0.4453125 0,0.140625 0.08203,0.2929687 0.304687,0.2929687 0.222656,0 0.457031,-0.1640625 0.457031,-0.5625 0,-0.4453125 -0.433593,-0.8554687 -1.183593,-0.8554687 -1.3125,0 -1.6875,1.0195312 -1.6875,1.453125 0,0.7851562 0.738281,0.9257812 1.03125,0.9960937 0.515625,0.09375 1.03125,0.1992188 1.03125,0.75 0,0.25781254 -0.222657,1.10156254 -1.417969,1.10156254 -0.140625,0 -0.914063,0 -1.136719,-0.52734375 0.375,0.046875 0.621094,-0.2578125 0.621094,-0.52734379 0,-0.234375 -0.152344,-0.3515625 -0.363281,-0.3515625 -0.257813,0 -0.5625,0.2109375 -0.5625,0.65625004 0,0.5625 0.574218,0.9609375 1.429687,0.9609375 1.605469,0 2.003906,-1.20703124 2.003906,-1.65234374 0,-0.3515625 -0.199218,-0.609375 -0.316406,-0.7265625 -0.269531,-0.28125 -0.550781,-0.328125 -0.996094,-0.421875 -0.351562,-0.070312 -0.75,-0.140625 -0.75,-0.5976563 0,-0.28125 0.234375,-0.890625 1.113282,-0.890625 0.246093,0 0.75,0.070312 0.890625,0.4570313 z m 33.547851,-0.1201172 c 0.386719,-1.1484375 1.476563,-1.1601562 1.582031,-1.1601562 1.5,0 1.617188,1.7460937 1.617188,2.53125 0,0.609375 -0.05859,0.7851562 -0.117188,0.984375 -0.222656,0.72656245 -0.527343,1.87499995 -0.527343,2.13281245 0,0.1171875 0.05859,0.1875 0.128906,0.1875 0.128906,0 0.210937,-0.22265625 0.328125,-0.59765625 0.222656,-0.84375 0.328125,-1.40625 0.363281,-1.7109375 0.02344,-0.140625 0.03516,-0.2695312 0.08203,-0.3984375 0.316407,-0.984375 0.949219,-2.4609375 1.347657,-3.2578125 0.07031,-0.1171875 0.199218,-0.328125 0.199218,-0.375 0,-0.09375 -0.105468,-0.09375 -0.128906,-0.09375 -0.02344,0 -0.08203,0 -0.117187,0.070312 -0.515625,0.9375 -0.914063,1.9335938 -1.3125,2.9414063 -0.01172,-0.3046875 -0.02344,-1.0664063 -0.410157,-2.0273438 -0.234375,-0.609375 -0.632812,-1.1015625 -1.324218,-1.1015625 -1.242188,0 -1.945313,1.5117188 -1.945313,1.828125 0,0.09375 0.09375,0.09375 0.1875,0.09375 z m 0,0"
         style="fill:#000000;fill-opacity:1;fill-rule:nonzero;stroke:none" />
      <path
         id="03-04-04-path1"
         d="m 5.7197259,-5.6713678 c 0,-0.7382813 -0.5507812,-1.359375 -1.359375,-1.359375 -0.5742187,0 -0.8554687,0.1523437 -1.2070312,0.421875 -0.5390625,0.3984375 -1.0898438,1.359375 -1.2773438,2.1210937 L 0.29394469,1.8286322 c -0.0117188,0.046875 0.0351563,0.1054687 0.1171875,0.1054687 0.0820313,0 0.10546875,-0.023437 0.1171875,-0.046875 L 1.2314447,-0.86668031 c 0.1875,0.59765625 0.6210937,0.97265625 1.3476562,0.97265625 0.7265625,0 1.4765625,-0.3515625 1.921875,-0.796875 0.4804688,-0.45703124 0.796875,-1.08984374 0.796875,-1.82812504 0,-0.7148437 -0.3632812,-1.2304687 -0.7265625,-1.4882812 0.5742188,-0.328125 1.1484375,-0.9375 1.1484375,-1.6640625 z m -1.7929687,1.6523437 c -0.1289063,0.058594 -0.234375,0.070312 -0.4804688,0.070312 -0.140625,0 -0.3398437,0.011719 -0.4335937,-0.035156 0.011719,-0.1054688 0.375,-0.082031 0.4804687,-0.082031 0.2109375,0 0.3046875,0 0.4335938,0.046875 z m 1.2304687,-1.875 c 0,0.6914063 -0.375,1.40625 -0.890625,1.7226563 -0.2695312,-0.1054688 -0.46875,-0.1171875 -0.7734375,-0.1171875 -0.1992187,0 -0.7617187,-0.011719 -0.7617187,0.3164062 -0.011719,0.28125 0.5039062,0.2460938 0.6914062,0.2460938 0.3632813,0 0.515625,-0.011719 0.8085938,-0.1289063 0.3867187,0.3632813 0.4335937,0.6679688 0.4453125,1.125 0.011719,0.5742188 -0.2226563,1.3242188 -0.5039063,1.7109375 -0.3867187,0.53906254 -1.0546875,0.90234379 -1.6171875,0.90234379 -0.7617187,0 -1.1367187,-0.5859375 -1.1367187,-1.28906249 0,-0.09375 0,-0.2460938 0.046875,-0.4335938 l 0.6328125,-2.5195312 c 0.2226562,-0.8554688 0.9375,-2.4492188 2.1328125,-2.4492188 0.5859375,0 0.9257812,0.3164063 0.9257812,0.9140625 z m 0,0"
         style="fill:#000000;fill-opacity:1;fill-rule:nonzero;stroke:none"
         aria-label="β"
         transform="translate(-38.284341)" />
    </g>
  </g>
</svg>
