<?xml version="1.0" encoding="UTF-8" standalone="no"?>
<!-- Created with Inkscape (http://www.inkscape.org/) -->

<svg
   version="1.1"
   width="130.62666"
   height="27.626667"
   viewBox="0 0 130.62666 27.626667"
   xmlns="http://www.w3.org/2000/svg"
   xmlns:svg="http://www.w3.org/2000/svg">
  <defs
     id="03-04-02-defs1" />
  <g
     id="03-04-02-g1">
    <g
       id="03-04-02-g2"
       aria-label="ω&#10;c&#10;β"
       transform="matrix(1.3333333,0,0,1.3333333,58.5536,15.702187)"
       style="display:inline;fill:#050000;fill-opacity:1;stroke:none;stroke-opacity:1"
       class="has-fill">
      <path
         id="03-04-02-path3"
         d="m 6.0242531,-3.7024213 c 0,-0.4453125 -0.1757812,-0.703125 -0.3984375,-0.703125 -0.2578125,0 -0.5273437,0.2460938 -0.5273437,0.46875 0,0.1054688 0.046875,0.2109375 0.1523437,0.3046875 0.1640625,0.140625 0.3515625,0.4101563 0.3515625,0.8320313 0,0.3984375 -0.1875,0.9726562 -0.5039062,1.4296875 -0.2929688,0.421875 -0.6679688,0.76171875 -1.1367188,0.76171875 -0.5625,0 -0.8671875,-0.3515625 -0.9609375,-0.89062505 0.1054688,-0.2578125 0.3398438,-0.9023437 0.3398438,-1.1835937 0,-0.1171875 -0.046875,-0.2109375 -0.1875,-0.2109375 -0.070312,0 -0.1875,0.011719 -0.2578125,0.1640625 -0.1171875,0.1992187 -0.234375,0.84375 -0.234375,1.2070312 -0.328125,0.46875 -0.7265625,0.91406255 -1.359375,0.91406255 -0.65625002,0 -0.86718752,-0.58593755 -0.86718752,-1.14843755 0,-1.2421875 1.01953122,-2.2851562 1.01953122,-2.4140625 0,-0.1171875 -0.082031,-0.1875 -0.1875,-0.1875 -0.1289062,0 -0.1992187,0.1289063 -0.2578125,0.2109375 -0.50390622,0.7382813 -0.89062497,1.921875 -0.89062497,2.8359375 0,0.67968755 0.234375,1.4179688 1.04296877,1.4179688 0.7148437,0 1.1835937,-0.4921875 1.5351562,-1.04296875 0.09375,0.57421875 0.4804688,1.04296875 1.1015625,1.04296875 0.7734375,0 1.2539063,-0.609375 1.6171875,-1.3476563 0.234375,-0.4921875 0.609375,-1.8515625 0.609375,-2.4609375 z m 0,0"
         style="fill:#050000;fill-opacity:1;fill-rule:nonzero;stroke:none;stroke-opacity:1" />
      <path
         id="03-04-02-path4"
         d="m 9.2586281,-1.1770306 c -0.2578125,0.046875 -0.3632812,0.23437497 -0.3632812,0.38671872 0,0.1875 0.1523437,0.2578125 0.2695312,0.2578125 0.1640625,0 0.3984375,-0.10546875 0.3984375,-0.4453125 0,-0.46875002 -0.5390625,-0.59765622 -0.9140625,-0.59765622 -1.0429687,0 -2.015625,0.96093747 -2.015625,1.92187497 0,0.609375 0.421875,1.21875003 1.2890625,1.21875003 1.1835938,0 1.734375,-0.69140628 1.734375,-0.78515628 0,-0.046875 -0.070312,-0.1171875 -0.1289062,-0.1171875 -0.035156,0 -0.046875,0.0117188 -0.1054688,0.0703125 C 8.8719094,1.3659381 8.0633156,1.3659381 7.9344094,1.3659381 c -0.5039063,0 -0.7265625,-0.3398437 -0.7265625,-0.77343748 0,-0.19921875 0.1054687,-0.9609375 0.46875,-1.44140625 0.2578125,-0.33984377 0.6210937,-0.53906247 0.9726562,-0.53906247 0.09375,0 0.4335938,0.011719 0.609375,0.2109375 z m 0,0"
         style="fill:#050000;fill-opacity:1;fill-rule:nonzero;stroke:none;stroke-opacity:1" />
      <path
         id="03-04-02-path5"
         d="m 50.288902,-4.5783978 c 0,-0.7382813 -0.550782,-1.359375 -1.359375,-1.359375 -0.574219,0 -0.855469,0.1523437 -1.207032,0.421875 -0.539062,0.3984375 -1.089843,1.359375 -1.277343,2.1210937 L 44.86312,2.9216022 c -0.01172,0.046875 0.03516,0.1054687 0.117188,0.1054687 0.08203,0 0.105469,-0.023437 0.117187,-0.046875 L 45.80062,0.22628969 c 0.1875,0.59765625 0.621094,0.97265621 1.347657,0.97265621 0.726562,0 1.476562,-0.35156246 1.921875,-0.79687496 0.480468,-0.45703125 0.796875,-1.08984375 0.796875,-1.82812504 0,-0.7148437 -0.363282,-1.2304687 -0.726563,-1.4882812 0.574219,-0.328125 1.148438,-0.9375 1.148438,-1.6640625 z m -1.792969,1.6523437 c -0.128906,0.058594 -0.234375,0.070312 -0.480469,0.070312 -0.140625,0 -0.339844,0.011719 -0.433594,-0.035156 0.01172,-0.1054688 0.375,-0.082031 0.480469,-0.082031 0.210938,0 0.304688,0 0.433594,0.046875 z m 1.230469,-1.875 c 0,0.6914063 -0.375,1.40625 -0.890625,1.7226563 -0.269532,-0.1054688 -0.46875,-0.1171875 -0.773438,-0.1171875 -0.199219,0 -0.761719,-0.011719 -0.761719,0.3164062 -0.01172,0.28125 0.503907,0.2460938 0.691407,0.2460938 0.363281,0 0.515625,-0.011719 0.808593,-0.1289063 0.386719,0.3632813 0.433594,0.6679688 0.445313,1.125 0.01172,0.5742188 -0.222656,1.32421879 -0.503906,1.71093754 -0.386719,0.5390625 -1.054688,0.90234375 -1.617188,0.90234375 -0.761719,0 -1.136719,-0.5859375 -1.136719,-1.2890625 0,-0.09375 0,-0.24609375 0.04687,-0.43359375 l 0.632813,-2.51953124 c 0.222656,-0.8554688 0.9375,-2.4492188 2.132812,-2.4492188 0.585938,0 0.925782,0.3164063 0.925782,0.9140625 z m 0,0"
         style="fill:#050000;fill-opacity:1;fill-rule:nonzero;stroke:none;stroke-opacity:1" />
      <path
         id="03-04-02-path1"
         d="m 4.7455097,-2.3549647 c 0,-1.5585937 -0.9257813,-2.0507812 -1.6523438,-2.0507812 -1.3710937,0 -2.68359371,1.4296875 -2.68359371,2.8359375 0,0.92578121 0.59765621,1.67578121 1.61718751,1.67578121 0.6210937,0 1.3359375,-0.22265625 2.0976562,-0.83203125 0.1289063,0.52734375 0.4570313,0.83203125 0.9023438,0.83203125 0.5273437,0 0.84375,-0.5390625 0.84375,-0.703125 0,-0.0703125 -0.058594,-0.10546875 -0.1289063,-0.10546875 -0.058594,0 -0.09375,0.0351563 -0.1289062,0.10546875 -0.1757813,0.4921875 -0.5273438,0.4921875 -0.5507813,0.4921875 -0.3164062,0 -0.3164062,-0.78515625 -0.3164062,-1.01953121 0,-0.2109375 0,-0.234375 0.1054687,-0.3515625 0.9375,-1.171875 1.1484375,-2.3320313 1.1484375,-2.34375 0,-0.011719 -0.011719,-0.09375 -0.1171875,-0.09375 -0.1054687,0 -0.1054687,0.023437 -0.1523437,0.2109375 -0.1875,0.6210937 -0.515625,1.3828125 -0.984375,1.96875 z m -0.65625,1.37109376 c -0.8789063,0.76171875 -1.6523438,0.87890625 -2.0507813,0.87890625 -0.5976562,0 -0.890625,-0.45703125 -0.890625,-1.08984371 0,-0.4921875 0.2578125,-1.5585938 0.5742188,-2.0742188 0.46875,-0.7265625 1.0078125,-0.9140625 1.359375,-0.9140625 0.984375,0 0.984375,1.3007813 0.984375,2.0859375 0,0.3632813 0,0.9375 0.023437,1.11328126 z m 0,0"
         style="fill:#050000;fill-opacity:1;fill-rule:nonzero;stroke:none;stroke-opacity:1"
         aria-label="α"
         transform="translate(-40.595281,0.74727002)" />
    </g>
    <g
       id="03-04-02-g10"
       style="fill:none;stroke-width:1;stroke-dasharray:none;stroke:#000000;stroke-opacity:1"
       class="has-stroke">
      <path
         id="03-04-02-path2"
         d="m 341.012,3.78125 h 298.883 v 199.258 H 341.012 Z"
         style="display:inline;fill:none;stroke:#000000;stroke-width:7.50000019;stroke-linecap:butt;stroke-linejoin:miter;stroke-miterlimit:10;stroke-dasharray:none;stroke-opacity:1"
         transform="matrix(0.13333333,0,0,-0.13333333,0,27.626667)" />
      <path
         id="03-04-02-path6"
         d="M 132.5,103.41 H 295.922"
         style="display:inline;fill:none;stroke:#000000;stroke-width:7.50000019;stroke-linecap:butt;stroke-linejoin:miter;stroke-miterlimit:10;stroke-dasharray:none;stroke-opacity:1"
         transform="matrix(0.13333333,0,0,-0.13333333,0,27.626667)" />
      <path
         id="03-04-02-path8"
         d="M 643.879,103.41 H 808.547"
         style="display:inline;fill:none;stroke:#000000;stroke-width:7.50000019;stroke-linecap:butt;stroke-linejoin:miter;stroke-miterlimit:10;stroke-dasharray:none;stroke-opacity:1"
         transform="matrix(0.13333333,0,0,-0.13333333,0,27.626667)" />
    </g>
    <g
       id="03-04-02-g9"
       style="fill:#000000;fill-opacity:1;stroke-width:1.33333333;stroke-dasharray:none;stroke:#000000;stroke-opacity:1"
       class="has-stroke  has-fill">
      <path
         id="03-04-02-path7"
         d="M 325.676,103.41 284.141,119.117 297.914,103.41 284.141,87.7031 Z"
         style="display:inline;fill:#000000;fill-opacity:1;fill-rule:nonzero;stroke:#000000;stroke-width:10.00000023;stroke-linecap:butt;stroke-linejoin:miter;stroke-miterlimit:10;stroke-dasharray:none;stroke-opacity:1"
         transform="matrix(0.13333333,0,0,-0.13333333,0,27.626667)" />
      <path
         id="03-04-02-path9"
         d="M 838.301,103.41 796.766,119.117 810.539,103.41 796.766,87.7031 Z"
         style="display:inline;fill:#000000;fill-opacity:1;fill-rule:nonzero;stroke:#000000;stroke-width:10.00000023;stroke-linecap:butt;stroke-linejoin:miter;stroke-miterlimit:10;stroke-dasharray:none;stroke-opacity:1"
         transform="matrix(0.13333333,0,0,-0.13333333,0,27.626667)" />
    </g>
  </g>
</svg>
