<?xml version="1.0" encoding="UTF-8" standalone="no"?>
<!-- Created with Inkscape (http://www.inkscape.org/) -->


<svg
   version="1.1"
   width="243.53333"
   height="87.946671"
   viewBox="0 0 243.53333 87.946671"
   xmlns="http://www.w3.org/2000/svg"
   xmlns:svg="http://www.w3.org/2000/svg">
  <defs
     id="03-04-03-defs1" />
  <g
     id="03-04-03-g1">
    <g
       id="03-04-03-g21"
       style="fill:#000000;fill-opacity:1;stroke:#000000;stroke-opacity:1"
       class="has-stroke  has-fill">
      <path
         id="03-04-03-path9"
         d="m 392.469,489.988 -41.535,15.707 13.773,-15.707 -13.773,-15.703 z"
         style="display:inline;fill:#000000;fill-opacity:1;fill-rule:nonzero;stroke:#000000;stroke-width:7.9701;stroke-linecap:butt;stroke-linejoin:miter;stroke-miterlimit:10;stroke-dasharray:none;stroke-opacity:1"
         transform="matrix(0.13333333,0,0,-0.13333333,0,87.946667)" />
      <path
         id="03-04-03-path11"
         d="m 1172.48,489.988 -41.53,15.707 13.77,-15.707 -13.77,-15.703 z"
         style="display:inline;fill:#000000;fill-opacity:1;fill-rule:nonzero;stroke:#000000;stroke-width:7.9701;stroke-linecap:butt;stroke-linejoin:miter;stroke-miterlimit:10;stroke-dasharray:none;stroke-opacity:1"
         transform="matrix(0.13333333,0,0,-0.13333333,0,87.946667)" />
      <path
         id="03-04-03-path16"
         d="m 1685.11,489.988 -41.54,15.707 13.77,-15.707 -13.77,-15.703 z"
         style="display:inline;fill:#000000;fill-opacity:1;fill-rule:nonzero;stroke:#000000;stroke-width:7.9701;stroke-linecap:butt;stroke-linejoin:miter;stroke-miterlimit:10;stroke-dasharray:none;stroke-opacity:1"
         transform="matrix(0.13333333,0,0,-0.13333333,0,87.946667)" />
      <path
         id="03-04-03-path18"
         d="m 486.852,395.605 -15.707,-41.531 15.707,13.774 15.707,-13.774 z"
         style="display:inline;fill:#000000;fill-opacity:1;fill-rule:nonzero;stroke:#000000;stroke-width:7.9701;stroke-linecap:butt;stroke-linejoin:miter;stroke-miterlimit:10;stroke-dasharray:none;stroke-opacity:1"
         transform="matrix(0.13333333,0,0,-0.13333333,0,87.946667)" />
    </g>
    <g
       id="03-04-03-g20"
       style="display:inline;fill:none;stroke:#000000;stroke-opacity:1;stroke-width:1;stroke-dasharray:none"
       class="has-stroke">
      <path
         id="03-04-03-path2"
         d="m 565.898,489.988 c 0,43.66 -35.39,79.051 -79.046,79.051 -43.657,0 -79.047,-35.391 -79.047,-79.051 0,-43.656 35.39,-79.047 79.047,-79.047 43.656,0 79.046,35.391 79.046,79.047 z"
         style="fill:none;stroke:#000000;stroke-width:7.50000019;stroke-linecap:butt;stroke-linejoin:miter;stroke-miterlimit:10;stroke-dasharray:none;stroke-opacity:1"
         transform="matrix(0.13333333,0,0,-0.13333333,0,87.946667)" />
      <path
         id="03-04-03-path4"
         d="m 1187.82,390.363 h 298.883 V 589.617 H 1187.82 Z"
         style="display:inline;fill:none;stroke:#000000;stroke-width:7.50000019;stroke-linecap:butt;stroke-linejoin:miter;stroke-miterlimit:10;stroke-dasharray:none;stroke-opacity:1"
         transform="matrix(0.13333333,0,0,-0.13333333,0,87.946667)" />
      <path
         id="03-04-03-path8"
         d="M 125.316,489.988 H 362.715"
         style="fill:none;stroke:#000000;stroke-width:7.50000019;stroke-linecap:butt;stroke-linejoin:miter;stroke-miterlimit:10;stroke-dasharray:none;stroke-opacity:1"
         transform="matrix(0.13333333,0,0,-0.13333333,0,87.946667)" />
      <path
         id="03-04-03-path10"
         d="M 569.887,489.988 H 1142.73"
         style="fill:none;stroke:#000000;stroke-width:7.50000019;stroke-linecap:butt;stroke-linejoin:miter;stroke-miterlimit:10;stroke-dasharray:none;stroke-opacity:1"
         transform="matrix(0.13333333,0,0,-0.13333333,0,87.946667)" />
      <path
         id="03-04-03-path15"
         d="m 1490.68,489.988 h 164.67"
         style="fill:none;stroke:#000000;stroke-width:7.50000019;stroke-linecap:butt;stroke-linejoin:miter;stroke-miterlimit:10;stroke-dasharray:none;stroke-opacity:1"
         transform="matrix(0.13333333,0,0,-0.13333333,0,87.946667)" />
      <path
         id="03-04-03-path17"
         d="M 486.852,131.121 V 365.855"
         style="fill:none;stroke:#000000;stroke-width:7.50000019;stroke-linecap:butt;stroke-linejoin:miter;stroke-miterlimit:10;stroke-dasharray:none;stroke-opacity:1"
         transform="matrix(0.13333333,0,0,-0.13333333,0,87.946667)" />
    </g>
    <g
       id="03-04-03-g19"
       style="display:inline;fill:#000000;fill-opacity:1;stroke:none"
       class="has-fill">
      <path
         id="03-04-03-path1"
         d="m 3.3294909,-3.0129266 c 0.058594,-0.2578125 0.2929688,-1.171875 0.984375,-1.171875 0.046875,0 0.2929688,0 0.5039063,0.1289063 -0.28125,0.046875 -0.4804688,0.3046875 -0.4804688,0.5390625 0,0.1640625 0.1054688,0.3515625 0.375,0.3515625 0.2226563,0 0.5390625,-0.1875 0.5390625,-0.5859375 0,-0.515625 -0.5859375,-0.65625 -0.9257812,-0.65625 -0.5742188,0 -0.9257813,0.5273437 -1.0429688,0.7617187 -0.2578125,-0.65625 -0.7851562,-0.7617187 -1.078125,-0.7617187 -1.0429687,0 -1.60546871,1.2890625 -1.60546871,1.5351562 0,0.1054688 0.10546875,0.1054688 0.1171875,0.1054688 0.0820313,0 0.1171875,-0.023437 0.12890625,-0.1171875 0.33984376,-1.0546875 0.99609376,-1.3007813 1.33593746,-1.3007813 0.1875,0 0.5390625,0.09375 0.5390625,0.6679688 0,0.3046875 -0.1640625,0.9726562 -0.5390625,2.3671875 -0.1523437,0.62109374 -0.5039062,1.04296874 -0.9492187,1.04296874 -0.058594,0 -0.28125001,0 -0.49218751,-0.12890625 0.24609375,-0.0585937 0.46875001,-0.26953125 0.46875001,-0.5390625 0,-0.26953129 -0.22265626,-0.35156249 -0.37500001,-0.35156249 -0.29296875,0 -0.5390625,0.25781249 -0.5390625,0.57421874 0,0.45703125 0.4921875,0.65625 0.93750001,0.65625 0.65625,0 1.0078125,-0.69140625 1.0429687,-0.75 0.1171875,0.36328125 0.4804688,0.75 1.078125,0.75 1.0195313,0 1.59375,-1.27734374 1.59375,-1.53515624 0,-0.09375 -0.09375,-0.09375 -0.1289062,-0.09375 -0.082031,0 -0.1054688,0.035156 -0.1289063,0.1054687 -0.328125,1.06640629 -0.9960937,1.31250004 -1.3242187,1.31250004 -0.3867188,0 -0.5390625,-0.328125 -0.5390625,-0.65625 0,-0.22265625 0.058594,-0.44531254 0.1640625,-0.87890624 z m 0,0"
         style="display:inline;fill:#000000;fill-opacity:1;fill-rule:nonzero;stroke:none"
         aria-label="x"
         transform="matrix(1.3333333,0,0,1.3333333,4.42396,25.474267)" />
      <path
         id="03-04-03-path3"
         d="m 4.0767953,-2.29555 h 2.7773438 c 0.140625,0 0.328125,0 0.328125,-0.1992188 0,-0.1992187 -0.1875,-0.1992187 -0.328125,-0.1992187 H 4.0767953 V -5.48305 c 0,-0.1289063 0,-0.328125 -0.1992187,-0.328125 -0.1992188,0 -0.1992188,0.1992187 -0.1992188,0.328125 v 2.7890625 H 0.88929531 c -0.140625,0 -0.328125,0 -0.328125,0.1992187 0,0.1992188 0.1875,0.1992188 0.328125,0.1992188 H 3.6783578 v 2.80078125 c 0,0.12890625 0,0.328125 0.1992188,0.328125 0.1992187,0 0.1992187,-0.19921875 0.1992187,-0.328125 z m 0,0"
         style="display:inline;fill:#000000;fill-opacity:1;fill-rule:nonzero;stroke:none"
         aria-label="+"
         transform="matrix(1.3333333,0,0,1.3333333,59.747867,25.935733)" />
      <path
         id="03-04-03-path5"
         d="m 6.0231406,-3.7041031 c 0,-0.4453125 -0.1757812,-0.703125 -0.3984375,-0.703125 -0.2578125,0 -0.5273437,0.2460937 -0.5273437,0.46875 0,0.1054687 0.046875,0.2109375 0.1523437,0.3046875 0.1640625,0.140625 0.3515625,0.4101562 0.3515625,0.8320312 0,0.3984375 -0.1875,0.9726563 -0.5039062,1.4296875 -0.2929688,0.42187502 -0.6679688,0.76171877 -1.1367188,0.76171877 -0.5625,0 -0.8671875,-0.3515625 -0.9609375,-0.89062497 0.1054688,-0.2578125 0.3398438,-0.9023438 0.3398438,-1.1835938 0,-0.1171875 -0.046875,-0.2109375 -0.1875,-0.2109375 -0.070312,0 -0.1875,0.011719 -0.2578125,0.1640625 -0.1171875,0.1992188 -0.234375,0.84375 -0.234375,1.2070313 -0.328125,0.46875 -0.7265625,0.91406247 -1.359375,0.91406247 -0.65625003,0 -0.86718753,-0.58593747 -0.86718753,-1.14843747 0,-1.2421875 1.01953123,-2.2851563 1.01953123,-2.4140625 0,-0.1171875 -0.082031,-0.1875 -0.1875,-0.1875 -0.1289062,0 -0.1992187,0.1289062 -0.2578125,0.2109375 -0.50390623,0.7382812 -0.89062498,1.921875 -0.89062498,2.8359375 0,0.67968747 0.234375,1.41796872 1.04296878,1.41796872 0.7148437,0 1.1835937,-0.4921875 1.5351562,-1.04296875 0.09375,0.57421875 0.4804688,1.04296875 1.1015625,1.04296875 0.7734375,0 1.2539063,-0.609375 1.6171875,-1.34765622 0.234375,-0.4921875 0.609375,-1.8515625 0.609375,-2.4609375 z m 0,0"
         style="display:inline;fill:#000000;fill-opacity:1;fill-rule:nonzero;stroke:none"
         transform="matrix(1.3333333,0,0,1.3333333,171.46133,24.477867)" />
      <path
         id="03-04-03-path6"
         d="m 9.2604453,-1.1787125 c -0.2578125,0.046875 -0.3632812,0.234375 -0.3632812,0.38671875 0,0.1875 0.1523437,0.2578125 0.2695312,0.2578125 0.1640625,0 0.3984375,-0.10546875 0.3984375,-0.4453125 0,-0.46875005 -0.5390625,-0.59765625 -0.9140625,-0.59765625 -1.0429687,0 -2.015625,0.9609375 -2.015625,1.921875 0,0.609375 0.421875,1.21875 1.2890625,1.21875 1.1835938,0 1.734375,-0.69140625 1.734375,-0.78515625 0,-0.046875 -0.070312,-0.1171875 -0.1289062,-0.1171875 -0.035156,0 -0.046875,0.0117188 -0.1054688,0.0703125 C 8.8737266,1.3642562 8.0651328,1.3642562 7.9362266,1.3642562 c -0.5039063,0 -0.7265625,-0.3398437 -0.7265625,-0.77343745 0,-0.19921875 0.1054687,-0.9609375 0.46875,-1.44140625 0.2578125,-0.3398438 0.6210937,-0.5390625 0.9726562,-0.5390625 0.09375,0 0.4335938,0.011719 0.609375,0.2109375 z m 0,0"
         style="display:inline;fill:#000000;fill-opacity:1;fill-rule:nonzero;stroke:none"
         transform="matrix(1.3333333,0,0,1.3333333,171.46133,24.477867)" />
      <path
         id="03-04-03-path7"
         d="m 50.287789,-4.57715 c 0,-0.7382813 -0.550781,-1.359375 -1.359375,-1.359375 -0.574219,0 -0.855469,0.1523437 -1.207031,0.421875 -0.539063,0.3984375 -1.089844,1.359375 -1.277344,2.1210937 L 44.862008,2.92285 c -0.01172,0.046875 0.03516,0.1054687 0.117187,0.1054687 0.08203,0 0.105469,-0.023437 0.117188,-0.046875 l 0.703125,-2.7539062 c 0.1875,0.59765625 0.621094,0.9726562 1.347656,0.9726562 0.726563,0 1.476563,-0.35156245 1.921875,-0.79687495 0.480469,-0.45703125 0.796875,-1.08984375 0.796875,-1.82812505 0,-0.7148437 -0.363281,-1.2304687 -0.726562,-1.4882812 0.574218,-0.328125 1.148437,-0.9375 1.148437,-1.6640625 z m -1.792969,1.6523437 c -0.128906,0.058594 -0.234375,0.070312 -0.480468,0.070312 -0.140625,0 -0.339844,0.011719 -0.433594,-0.035156 0.01172,-0.1054688 0.375,-0.082031 0.480469,-0.082031 0.210937,0 0.304687,0 0.433593,0.046875 z m 1.230469,-1.875 c 0,0.6914063 -0.375,1.40625 -0.890625,1.7226563 -0.269531,-0.1054688 -0.46875,-0.1171875 -0.773437,-0.1171875 -0.199219,0 -0.761719,-0.011719 -0.761719,0.3164062 -0.01172,0.28125 0.503906,0.2460938 0.691406,0.2460938 0.363281,0 0.515625,-0.011719 0.808594,-0.1289063 0.386719,0.3632813 0.433594,0.6679688 0.445312,1.125 0.01172,0.5742188 -0.222656,1.3242188 -0.503906,1.71093755 -0.386719,0.5390625 -1.054687,0.90234375 -1.617187,0.90234375 -0.761719,0 -1.136719,-0.5859375 -1.136719,-1.2890625 0,-0.09375 0,-0.24609375 0.04687,-0.43359375 L 46.666695,-3.26465 c 0.222657,-0.8554688 0.9375,-2.4492188 2.132813,-2.4492188 0.585937,0 0.925781,0.3164063 0.925781,0.9140625 z M -77.69268,38.500975 c 0.04687,-0.140625 0.04687,-0.152344 0.04687,-0.222656 0,-0.1875 -0.140625,-0.269532 -0.292968,-0.269532 -0.105469,0 -0.257813,0.05859 -0.351563,0.199219 -0.02344,0.05859 -0.09375,0.363281 -0.140625,0.539063 -0.07031,0.257812 -0.140625,0.527343 -0.199219,0.796875 l -0.445312,1.792968 c -0.03516,0.152344 -0.46875,0.855469 -1.125,0.855469 -0.503906,0 -0.621094,-0.445312 -0.621094,-0.808594 0,-0.457031 0.175781,-1.078125 0.515625,-1.957031 0.152344,-0.410156 0.199219,-0.515625 0.199219,-0.714844 0,-0.445312 -0.328125,-0.820312 -0.820313,-0.820312 -0.949218,0 -1.3125,1.453125 -1.3125,1.535156 0,0.105469 0.09375,0.105469 0.117188,0.105469 0.09375,0 0.105469,-0.02344 0.152344,-0.1875 0.269531,-0.9375 0.667968,-1.230469 1.007812,-1.230469 0.08203,0 0.257813,0 0.257813,0.316406 0,0.246094 -0.105469,0.515625 -0.175782,0.703125 -0.398437,1.054688 -0.574218,1.617188 -0.574218,2.085938 0,0.890625 0.621093,1.183594 1.21875,1.183594 0.386718,0 0.726562,-0.164063 0.996093,-0.445313 -0.128906,0.515625 -0.246093,1.007813 -0.644531,1.535156 -0.257812,0.339844 -0.632812,0.632813 -1.089844,0.632813 -0.140625,0 -0.597656,-0.03516 -0.761718,-0.421875 0.164062,0 0.292968,0 0.433593,-0.117188 0.09375,-0.09375 0.199219,-0.222656 0.199219,-0.410156 0,-0.316406 -0.269531,-0.351562 -0.375,-0.351562 -0.222656,0 -0.550781,0.164062 -0.550781,0.644531 0,0.503906 0.433594,0.867187 1.054687,0.867187 1.019532,0 2.050782,-0.902343 2.332032,-2.027343 z m 0,0"
         style="display:inline;fill:#000000;fill-opacity:1;fill-rule:nonzero;stroke:none"
         transform="matrix(1.3333333,0,0,1.3333333,171.46133,24.477867)" />
      <path
         id="03-04-03-path12"
         d="m 3.2940906,2.3911781 c 0,-0.035156 0,-0.046875 -0.1640625,-0.2226562 -1.2421875,-1.25390628 -1.5703125,-3.12890628 -1.5703125,-4.6640625 0,-1.7226563 0.3867188,-3.4570313 1.6054688,-4.7109375 0.1289062,-0.1171875 0.1289062,-0.1289063 0.1289062,-0.1640625 0,-0.070312 -0.035156,-0.1054688 -0.09375,-0.1054688 -0.1054687,0 -0.9960937,0.6796875 -1.5820312,1.9453125 -0.515625,1.1015625 -0.63281252,2.203125 -0.63281252,3.0351563 0,0.7851562 0.11718752,1.99218747 0.65625002,3.11718747 0.5976562,1.21875003 1.453125,1.87500003 1.5585937,1.87500003 0.058594,0 0.09375,-0.035156 0.09375,-0.1054688 z m 0,0"
         style="display:inline;fill:#000000;fill-opacity:1;fill-rule:nonzero;stroke:none"
         transform="matrix(1.3333333,0,0,1.3333333,107.47507,14.3352)" />
      <path
         id="03-04-03-path13"
         d="m 8.6173328,-2.3549156 c 0,-1.5585938 -0.9257812,-2.0507813 -1.6523437,-2.0507813 -1.3710938,0 -2.6835938,1.4296875 -2.6835938,2.8359375 0,0.92578127 0.5976563,1.67578127 1.6171875,1.67578127 0.6210938,0 1.3359375,-0.22265625 2.0976563,-0.83203125 0.1289062,0.52734375 0.4570312,0.83203125 0.9023437,0.83203125 0.5273438,0 0.84375,-0.5390625 0.84375,-0.703125 0,-0.0703125 -0.058594,-0.10546875 -0.1289062,-0.10546875 -0.058594,0 -0.09375,0.0351563 -0.1289063,0.10546875 -0.1757812,0.4921875 -0.5273437,0.4921875 -0.5507812,0.4921875 -0.3164063,0 -0.3164063,-0.78515625 -0.3164063,-1.01953127 0,-0.2109375 0,-0.234375 0.1054688,-0.3515625 0.9375,-1.171875 1.1484375,-2.3320312 1.1484375,-2.34375 0,-0.011719 -0.011719,-0.09375 -0.1171875,-0.09375 -0.1054688,0 -0.1054688,0.023437 -0.1523438,0.2109375 -0.1875,0.6210938 -0.515625,1.3828125 -0.984375,1.96875 z m -0.65625,1.37109372 c -0.8789062,0.76171875 -1.6523437,0.87890625 -2.0507812,0.87890625 -0.5976563,0 -0.890625,-0.45703125 -0.890625,-1.08984377 0,-0.4921875 0.2578125,-1.5585937 0.5742187,-2.0742187 0.46875,-0.7265625 1.0078125,-0.9140625 1.359375,-0.9140625 0.984375,0 0.984375,1.3007812 0.984375,2.0859375 0,0.3632812 0,0.9375 0.023437,1.11328122 z m 0,0"
         style="display:inline;fill:#000000;fill-opacity:1;fill-rule:nonzero;stroke:none"
         transform="matrix(1.3333333,0,0,1.3333333,107.47507,14.3352)" />
      <path
         id="03-04-03-path14"
         d="m 13.161278,-2.4955406 c 0,-0.7734375 -0.117187,-1.9804688 -0.65625,-3.1054688 -0.597656,-1.21875 -1.464844,-1.875 -1.558594,-1.875 -0.05859,0 -0.105468,0.046875 -0.105468,0.1054688 0,0.035156 0,0.046875 0.199218,0.234375 0.972657,0.984375 1.535157,2.5664062 1.535157,4.640625 0,1.71093747 -0.363282,3.45703122 -1.59375,4.7226562 -0.140625,0.1171875 -0.140625,0.1289063 -0.140625,0.1640625 0,0.058594 0.04687,0.1054688 0.105468,0.1054688 0.09375,0 0.996094,-0.6796875 1.582032,-1.94531253 0.503906,-1.1015625 0.632812,-2.20312497 0.632812,-3.04687497 z m 0,0"
         style="display:inline;fill:#000000;fill-opacity:1;fill-rule:nonzero;stroke:none"
         transform="matrix(1.3333333,0,0,1.3333333,107.47507,14.3352)" />
      <path
         id="03-04-03-path19"
         d="m 6.5615203,-2.2961766 c 0.1757813,0 0.3515625,0 0.3515625,-0.1992187 0,-0.1992188 -0.1757812,-0.1992188 -0.3515625,-0.1992188 h -5.390625 c -0.1640625,0 -0.33984374,0 -0.33984374,0.1992188 0,0.1992187 0.17578124,0.1992187 0.33984374,0.1992187 z m 0,0"
         style="display:inline;fill:#000000;fill-opacity:1;fill-rule:nonzero;stroke:none"
         aria-label="−"
         transform="matrix(1.3333333,0,0,1.3333333,69.8724,46.3936)" />
    </g>
  </g>
</svg>