<?xml version="1.0" encoding="UTF-8" standalone="no"?>
<!-- Created with Inkscape (http://www.inkscape.org/) -->

<svg
  version="1.1"
  width="130.30667"
  height="76.346664"
  viewBox="0 0 130.30667 76.346664"
  xmlns="http://www.w3.org/2000/svg"
  xmlns:svg="http://www.w3.org/2000/svg">
  <defs
     id="03-04-01-defs1" />
  <g
     id="03-04-01-g1">
    <g
       id="03-04-01-g2"
       aria-label="+&#10;α&#10;y"
       transform="matrix(1.3333333,0,0,1.3333333,59.747867,14.3436)"
       style="display:inline;stroke:none;stroke-opacity:1;fill:#000000;fill-opacity:1"
       class="has-fill">
      <path
         id="03-04-01-path3"
         d="m 4.0767953,-2.2967625 h 2.7773438 c 0.140625,0 0.328125,0 0.328125,-0.1992187 0,-0.1992188 -0.1875,-0.1992188 -0.328125,-0.1992188 H 4.0767953 v -2.7890625 c 0,-0.1289062 0,-0.328125 -0.1992187,-0.328125 -0.1992188,0 -0.1992188,0.1992188 -0.1992188,0.328125 V -2.6952 H 0.88929531 c -0.140625,0 -0.328125,0 -0.328125,0.1992188 0,0.1992187 0.1875,0.1992187 0.328125,0.1992187 H 3.6783578 v 2.80078125 c 0,0.12890625 0,0.328125 0.1992188,0.328125 0.1992187,0 0.1992187,-0.19921875 0.1992187,-0.328125 z m 0,0"
         style="display:inline;fill:#000000;fill-opacity:1;fill-rule:nonzero;stroke:none;stroke-opacity:1" />
      <path
         id="03-04-01-path4"
         d="m 47.934217,-2.7010594 c 0,-1.5585937 -0.925781,-2.0507812 -1.652344,-2.0507812 -1.371093,0 -2.683593,1.4296875 -2.683593,2.8359375 0,0.92578123 0.597656,1.67578123 1.617187,1.67578123 0.621094,0 1.335938,-0.22265625 2.097656,-0.83203123 0.128907,0.52734373 0.457032,0.83203123 0.902344,0.83203123 0.527344,0 0.84375,-0.5390625 0.84375,-0.703125 0,-0.0703125 -0.05859,-0.10546873 -0.128906,-0.10546873 -0.05859,0 -0.09375,0.035156 -0.128906,0.10546873 -0.175782,0.4921875 -0.527344,0.4921875 -0.550782,0.4921875 -0.316406,0 -0.316406,-0.78515623 -0.316406,-1.01953123 0,-0.2109375 0,-0.234375 0.105469,-0.3515625 0.9375,-1.171875 1.148437,-2.3320313 1.148437,-2.34375 0,-0.011719 -0.01172,-0.09375 -0.117187,-0.09375 -0.105469,0 -0.105469,0.023437 -0.152344,0.2109375 -0.1875,0.6210937 -0.515625,1.3828125 -0.984375,1.96875 z m -0.65625,1.3710938 c -0.878906,0.76171873 -1.652344,0.87890623 -2.050781,0.87890623 -0.597656,0 -0.890625,-0.45703125 -0.890625,-1.08984373 0,-0.4921875 0.257812,-1.5585938 0.574219,-2.0742188 0.46875,-0.7265625 1.007812,-0.9140625 1.359375,-0.9140625 0.984375,0 0.984375,1.3007813 0.984375,2.0859375 0,0.3632813 0,0.9375 0.02344,1.1132813 z M 6.0924203,37.409292 c 0.046875,-0.140625 0.046875,-0.152344 0.046875,-0.222656 0,-0.1875 -0.140625,-0.269531 -0.2929687,-0.269531 -0.1054688,0 -0.2578125,0.05859 -0.3515625,0.199218 -0.023437,0.05859 -0.09375,0.363282 -0.140625,0.539063 -0.070312,0.257812 -0.140625,0.527344 -0.1992188,0.796875 L 4.7096078,40.24523 c -0.035156,0.152343 -0.46875,0.855468 -1.125,0.855468 -0.5039062,0 -0.6210937,-0.445312 -0.6210937,-0.808593 0,-0.457032 0.1757812,-1.078125 0.515625,-1.957032 0.1523437,-0.410156 0.1992187,-0.515625 0.1992187,-0.714843 0,-0.445313 -0.328125,-0.820313 -0.8203125,-0.820313 -0.9492187,0 -1.3125,1.453125 -1.3125,1.535156 0,0.105469 0.09375,0.105469 0.1171875,0.105469 0.09375,0 0.1054688,-0.02344 0.1523438,-0.1875 0.2695312,-0.9375 0.6679687,-1.230469 1.0078125,-1.230469 0.082031,0 0.2578125,0 0.2578125,0.316407 0,0.246093 -0.1054688,0.515625 -0.1757813,0.703125 -0.3984375,1.054687 -0.5742187,1.617187 -0.5742187,2.085937 0,0.890625 0.6210937,1.183594 1.21875,1.183594 0.3867187,0 0.7265625,-0.164063 0.9960937,-0.445313 -0.1289062,0.515625 -0.2460937,1.007813 -0.6445312,1.535157 -0.2578125,0.339843 -0.6328125,0.632812 -1.0898438,0.632812 -0.140625,0 -0.5976562,-0.03516 -0.7617187,-0.421875 0.1640625,0 0.2929687,0 0.4335937,-0.117187 0.09375,-0.09375 0.1992188,-0.222657 0.1992188,-0.410157 0,-0.316406 -0.2695313,-0.351562 -0.375,-0.351562 -0.2226563,0 -0.5507813,0.164062 -0.5507813,0.644531 0,0.503906 0.4335938,0.867188 1.0546875,0.867188 1.0195313,0 2.0507813,-0.902344 2.3320313,-2.027344 z m 0,0"
         style="display:inline;fill:#000000;fill-opacity:1;fill-rule:nonzero;stroke:none;stroke-opacity:1" />
      <path
         id="03-04-01-path1"
         d="m 3.3294909,-3.0112094 c 0.058594,-0.2578125 0.2929688,-1.171875 0.984375,-1.171875 0.046875,0 0.2929688,0 0.5039063,0.1289063 -0.28125,0.046875 -0.4804688,0.3046875 -0.4804688,0.5390625 0,0.1640625 0.1054688,0.3515625 0.375,0.3515625 0.2226563,0 0.5390625,-0.1875 0.5390625,-0.5859375 0,-0.515625 -0.5859375,-0.65625 -0.9257812,-0.65625 -0.5742188,0 -0.9257813,0.5273437 -1.0429688,0.7617187 -0.2578125,-0.65625 -0.7851562,-0.7617187 -1.078125,-0.7617187 -1.0429687,0 -1.60546871,1.2890625 -1.60546871,1.5351562 0,0.1054688 0.10546875,0.1054688 0.1171875,0.1054688 0.0820313,0 0.1171875,-0.023437 0.12890625,-0.1171875 0.33984376,-1.0546875 0.99609376,-1.3007813 1.33593746,-1.3007813 0.1875,0 0.5390625,0.09375 0.5390625,0.6679688 0,0.3046875 -0.1640625,0.9726562 -0.5390625,2.3671875 -0.1523437,0.62109372 -0.5039062,1.04296872 -0.9492187,1.04296872 -0.058594,0 -0.28125001,0 -0.49218751,-0.12890625 0.24609375,-0.0585938 0.46875001,-0.26953125 0.46875001,-0.5390625 0,-0.26953127 -0.22265626,-0.35156247 -0.37500001,-0.35156247 -0.29296875,0 -0.5390625,0.25781247 -0.5390625,0.57421872 0,0.45703125 0.4921875,0.65625 0.93750001,0.65625 0.65625,0 1.0078125,-0.69140625 1.0429687,-0.75 0.1171875,0.36328125 0.4804688,0.75 1.078125,0.75 1.0195313,0 1.59375,-1.27734372 1.59375,-1.53515622 0,-0.09375 -0.09375,-0.09375 -0.1289062,-0.09375 -0.082031,0 -0.1054688,0.035156 -0.1289063,0.1054687 -0.328125,1.06640627 -0.9960937,1.31250002 -1.3242187,1.31250002 -0.3867188,0 -0.5390625,-0.328125 -0.5390625,-0.65625 0,-0.22265625 0.058594,-0.44531252 0.1640625,-0.87890622 z m 0,0"
         style="display:inline;fill:#000000;fill-opacity:1;fill-rule:nonzero;stroke:none;stroke-opacity:1"
         aria-label="x"
         transform="translate(-41.492931,-0.34610026)" />
      <path
         id="03-04-01-path11"
         d="m 6.5615203,-2.2972891 c 0.1757813,0 0.3515625,0 0.3515625,-0.1992187 0,-0.1992188 -0.1757812,-0.1992188 -0.3515625,-0.1992188 h -5.390625 c -0.1640625,0 -0.33984374,0 -0.33984374,0.1992188 0,0.1992187 0.17578124,0.1992187 0.33984374,0.1992187 z m 0,0"
         style="display:inline;fill:#000000;fill-opacity:1;fill-rule:nonzero;stroke:none;stroke-opacity:1"
         aria-label="−"
         transform="translate(7.5933999,15.3433)" />
    </g>
    <g
       id="03-04-01-g12"
       style="fill:#000000;fill-opacity:1;stroke:#000000;stroke-opacity:1;stroke-width:1.33333333;stroke-dasharray:none"
       class="has-stroke  has-fill">
      <path
         id="03-04-01-path6"
         d="m 392.469,489.93 -41.535,15.707 13.773,-15.707 -13.773,-15.707 z"
         style="display:inline;fill:#000000;fill-opacity:1;fill-rule:nonzero;stroke:#000000;stroke-width:10.00000023;stroke-linecap:butt;stroke-linejoin:miter;stroke-miterlimit:10;stroke-dasharray:none;stroke-opacity:1"
         transform="matrix(0.13333333,0,0,-0.13333333,0,76.346667)" />
      <path
         id="03-04-01-path8"
         d="m 833.457,489.93 -41.535,15.707 13.773,-15.707 -13.773,-15.707 z"
         style="display:inline;fill:#000000;fill-opacity:1;fill-rule:nonzero;stroke:#000000;stroke-width:10.00000023;stroke-linecap:butt;stroke-linejoin:miter;stroke-miterlimit:10;stroke-dasharray:none;stroke-opacity:1"
         transform="matrix(0.13333333,0,0,-0.13333333,0,76.346667)" />
      <path
         id="03-04-01-path10"
         d="m 486.852,395.547 -15.707,-41.535 15.707,13.773 15.707,-13.773 z"
         style="display:inline;fill:#000000;fill-opacity:1;fill-rule:nonzero;stroke:#000000;stroke-width:10.00000023;stroke-linecap:butt;stroke-linejoin:miter;stroke-miterlimit:10;stroke-dasharray:none;stroke-opacity:1"
         transform="matrix(0.13333333,0,0,-0.13333333,0,76.346667)" />
    </g>
    <g
       id="03-04-01-g11"
       style="display:inline;fill:none;stroke:#000000;stroke-opacity:1;stroke-width:1.33333333;stroke-dasharray:none"
       class="has-stroke">
      <path
         id="03-04-01-path2"
         d="m 565.898,489.93 c 0,43.656 -35.39,79.047 -79.046,79.047 -43.657,0 -79.047,-35.391 -79.047,-79.047 0,-43.657 35.39,-79.047 79.047,-79.047 43.656,0 79.046,35.39 79.046,79.047 z"
         style="display:inline;fill:none;stroke:#000000;stroke-width:10.00000023;stroke-linecap:butt;stroke-linejoin:miter;stroke-miterlimit:10;stroke-dasharray:none;stroke-opacity:1"
         transform="matrix(0.13333333,0,0,-0.13333333,0,76.346667)" />
      <path
         id="03-04-01-path5"
         d="M 125.316,489.93 H 362.715"
         style="fill:none;stroke:#000000;stroke-width:10.00000023;stroke-linecap:butt;stroke-linejoin:miter;stroke-miterlimit:10;stroke-dasharray:none;stroke-opacity:1"
         transform="matrix(0.13333333,0,0,-0.13333333,0,76.346667)" />
      <path
         id="03-04-01-path7"
         d="M 569.887,489.93 H 803.703"
         style="fill:none;stroke:#000000;stroke-width:10.00000023;stroke-linecap:butt;stroke-linejoin:miter;stroke-miterlimit:10;stroke-dasharray:none;stroke-opacity:1"
         transform="matrix(0.13333333,0,0,-0.13333333,0,76.346667)" />
      <path
         id="03-04-01-path9"
         d="M 486.852,131.059 V 365.793"
         style="fill:none;stroke:#000000;stroke-width:10.00000023;stroke-linecap:butt;stroke-linejoin:miter;stroke-miterlimit:10;stroke-dasharray:none;stroke-opacity:1"
         transform="matrix(0.13333333,0,0,-0.13333333,0,76.346667)" />
    </g>
  </g>
</svg>
