<?xml version="1.0" encoding="UTF-8" standalone="no"?>
<!-- Created with Inkscape (http://www.inkscape.org/) -->

<svg
  version="1.1"
  width="413"
  height="83.786667"
  viewBox="0 0 413 83.786667"
  xmlns="http://www.w3.org/2000/svg"
  xmlns:svg="http://www.w3.org/2000/svg">
  <defs
     id="03-04-06-defs1" />
  <g
     id="03-04-06-g1">
    <g
       id="03-04-06-g33"
       style="fill:none;stroke:#000000;stroke-opacity:1;stroke-width:1;stroke-dasharray:none"
       class="has-stroke">
      <path
         id="03-04-06-path2"
         d="m 565.898,457.988 c 0,43.66 -35.39,79.051 -79.046,79.051 -43.657,0 -79.047,-35.391 -79.047,-79.051 0,-43.656 35.39,-79.047 79.047,-79.047 43.656,0 79.046,35.391 79.046,79.047 z"
         style="display:inline;fill:none;stroke:#000000;stroke-width:7.50000019;stroke-linecap:butt;stroke-linejoin:miter;stroke-miterlimit:10;stroke-dasharray:none;stroke-opacity:1"
         transform="matrix(0.13333333,0,0,-0.13333333,0,83.786667)" />
      <path
         id="03-04-06-path4"
         d="m 1187.82,358.363 h 298.883 V 557.617 H 1187.82 Z"
         style="display:inline;fill:none;stroke:#000000;stroke-width:7.50000019;stroke-linecap:butt;stroke-linejoin:miter;stroke-miterlimit:10;stroke-dasharray:none;stroke-opacity:1"
         transform="matrix(0.13333333,0,0,-0.13333333,0,83.786667)" />
      <path
         id="03-04-06-path7"
         d="m 2038.22,358.363 h 298.883 V 557.617 H 2038.22 Z"
         style="display:inline;fill:none;stroke:#000000;stroke-width:7.50000019;stroke-linecap:butt;stroke-linejoin:miter;stroke-miterlimit:10;stroke-dasharray:none;stroke-opacity:1"
         transform="matrix(0.13333333,0,0,-0.13333333,0,83.786667)" />
      <path
         id="03-04-06-path10"
         d="m 2684.82,457.988 c 0,39.742 -32.21,71.961 -71.96,71.961 -39.74,0 -71.95,-32.219 -71.95,-71.961 0,-39.738 32.21,-71.957 71.95,-71.957 39.75,0 71.96,32.219 71.96,71.957 z"
         style="display:inline;fill:none;stroke:#000000;stroke-width:7.50000019;stroke-linecap:butt;stroke-linejoin:miter;stroke-miterlimit:10;stroke-dasharray:none;stroke-opacity:1"
         transform="matrix(0.13333333,0,0,-0.13333333,0,83.786667)" />
      <path
         id="03-04-06-path13"
         d="M 125.316,457.988 H 362.715"
         style="display:inline;fill:none;stroke:#000000;stroke-width:7.50000019;stroke-linecap:butt;stroke-linejoin:miter;stroke-miterlimit:10;stroke-dasharray:none;stroke-opacity:1"
         transform="matrix(0.13333333,0,0,-0.13333333,0,83.786667)" />
      <path
         id="03-04-06-path15"
         d="M 569.887,457.988 H 1142.73"
         style="display:inline;fill:none;stroke:#000000;stroke-width:7.50000019;stroke-linecap:butt;stroke-linejoin:miter;stroke-miterlimit:10;stroke-dasharray:none;stroke-opacity:1"
         transform="matrix(0.13333333,0,0,-0.13333333,0,83.786667)" />
      <path
         id="03-04-06-path20"
         d="m 1490.68,457.988 h 502.45"
         style="display:inline;fill:none;stroke:#000000;stroke-width:7.50000019;stroke-linecap:butt;stroke-linejoin:miter;stroke-miterlimit:10;stroke-dasharray:none;stroke-opacity:1"
         transform="matrix(0.13333333,0,0,-0.13333333,0,83.786667)" />
      <path
         id="03-04-06-path25"
         d="m 2341.09,457.988 h 154.73"
         style="display:inline;fill:none;stroke:#000000;stroke-width:7.50000019;stroke-linecap:butt;stroke-linejoin:miter;stroke-miterlimit:10;stroke-dasharray:none;stroke-opacity:1"
         transform="matrix(0.13333333,0,0,-0.13333333,0,83.786667)" />
      <path
         id="03-04-06-path27"
         d="m 2688.8,457.988 h 246.75"
         style="display:inline;fill:none;stroke:#000000;stroke-width:7.50000019;stroke-linecap:butt;stroke-linejoin:miter;stroke-miterlimit:10;stroke-dasharray:none;stroke-opacity:1"
         transform="matrix(0.13333333,0,0,-0.13333333,0,83.786667)" />
      <path
         id="03-04-06-path29"
         d="M 2612.86,382.047 V 32.7891 H 486.852 V 333.855"
         style="display:inline;fill:none;stroke:#000000;stroke-width:7.50000019;stroke-linecap:butt;stroke-linejoin:miter;stroke-miterlimit:10;stroke-dasharray:none;stroke-opacity:1"
         transform="matrix(0.13333333,0,0,-0.13333333,0,83.786667)" />
    </g>
    <g
       id="03-04-06-g32"
       style="display:inline;stroke:#000000;stroke-opacity:1;fill:#000000;fill-opacity:1"
       class="has-fill  has-stroke">
      <path
         id="03-04-06-path14"
         d="m 392.469,457.988 -41.535,15.707 13.773,-15.707 -13.773,-15.703 z"
         style="fill:#000000;fill-opacity:1;fill-rule:nonzero;stroke:#000000;stroke-width:7.9701;stroke-linecap:butt;stroke-linejoin:miter;stroke-miterlimit:10;stroke-dasharray:none;stroke-opacity:1"
         transform="matrix(0.13333333,0,0,-0.13333333,0,83.786667)" />
      <path
         id="03-04-06-path16"
         d="m 1172.48,457.988 -41.53,15.707 13.77,-15.707 -13.77,-15.703 z"
         style="fill:#000000;fill-opacity:1;fill-rule:nonzero;stroke:#000000;stroke-width:7.9701;stroke-linecap:butt;stroke-linejoin:miter;stroke-miterlimit:10;stroke-dasharray:none;stroke-opacity:1"
         transform="matrix(0.13333333,0,0,-0.13333333,0,83.786667)" />
      <path
         id="03-04-06-path21"
         d="m 2022.88,457.988 -41.53,15.707 13.78,-15.707 -13.78,-15.703 z"
         style="fill:#000000;fill-opacity:1;fill-rule:nonzero;stroke:#000000;stroke-width:7.9701;stroke-linecap:butt;stroke-linejoin:miter;stroke-miterlimit:10;stroke-dasharray:none;stroke-opacity:1"
         transform="matrix(0.13333333,0,0,-0.13333333,0,83.786667)" />
      <path
         id="03-04-06-path26"
         d="m 2525.57,457.988 -41.53,15.707 13.77,-15.707 -13.77,-15.703 z"
         style="fill:#000000;fill-opacity:1;fill-rule:nonzero;stroke:#000000;stroke-width:7.9701;stroke-linecap:butt;stroke-linejoin:miter;stroke-miterlimit:10;stroke-dasharray:none;stroke-opacity:1"
         transform="matrix(0.13333333,0,0,-0.13333333,0,83.786667)" />
      <path
         id="03-04-06-path28"
         d="m 2965.31,457.988 -41.54,15.707 13.78,-15.707 -13.78,-15.703 z"
         style="fill:#000000;fill-opacity:1;fill-rule:nonzero;stroke:#000000;stroke-width:7.9701;stroke-linecap:butt;stroke-linejoin:miter;stroke-miterlimit:10;stroke-dasharray:none;stroke-opacity:1"
         transform="matrix(0.13333333,0,0,-0.13333333,0,83.786667)" />
      <path
         id="03-04-06-path30"
         d="m 486.852,363.605 -15.707,-41.531 15.707,13.774 15.707,-13.774 z"
         style="fill:#000000;fill-opacity:1;fill-rule:nonzero;stroke:#000000;stroke-width:7.9701;stroke-linecap:butt;stroke-linejoin:miter;stroke-miterlimit:10;stroke-dasharray:none;stroke-opacity:1"
         transform="matrix(0.13333333,0,0,-0.13333333,0,83.786667)" />
    </g>
    <g
       id="03-04-06-g21"
       aria-label="(β)"
       transform="matrix(1.3333333,0,0,1.3333333,225.72133,14.441867)"
       style="display:inline;fill:#000000;fill-opacity:1;stroke:none"
       class="has-fill">
      <g
         id="03-04-06-g31"
         style="fill:#000000;fill-opacity:1;stroke:none">
        <path
           id="03-04-06-path22"
           d="m 3.2939609,2.3902797 c 0,-0.035156 0,-0.046875 -0.1640625,-0.2226563 -1.2421875,-1.25390621 -1.5703125,-3.12890621 -1.5703125,-4.6640625 0,-1.7226562 0.3867188,-3.4570312 1.6054688,-4.7109375 0.1289062,-0.1171875 0.1289062,-0.1289062 0.1289062,-0.1640625 0,-0.070312 -0.035156,-0.1054687 -0.09375,-0.1054687 -0.1054687,0 -0.9960937,0.6796875 -1.5820312,1.9453125 -0.515625,1.1015625 -0.63281251,2.203125 -0.63281251,3.0351562 0,0.7851563 0.11718751,1.99218754 0.65625001,3.11718754 0.5976562,1.21874996 1.453125,1.87499996 1.5585937,1.87499996 0.058594,0 0.09375,-0.035156 0.09375,-0.1054687 z m 0,0"
           style="fill:#000000;fill-opacity:1;fill-rule:nonzero;stroke:none" />
        <path
           id="03-04-06-path23"
           d="m 9.5898594,-5.6722203 c 0,-0.7382813 -0.5507813,-1.359375 -1.359375,-1.359375 -0.5742188,0 -0.8554688,0.1523437 -1.2070313,0.421875 -0.5390625,0.3984375 -1.0898437,1.359375 -1.2773437,2.1210937 L 4.1640781,1.8277797 c -0.011719,0.046875 0.035156,0.1054687 0.1171875,0.1054687 0.082031,0 0.1054688,-0.023437 0.1171875,-0.046875 l 0.703125,-2.75390621 c 0.1875,0.59765625 0.6210938,0.97265625 1.3476563,0.97265625 0.7265625,0 1.4765625,-0.3515625 1.921875,-0.796875 0.4804687,-0.45703124 0.796875,-1.08984374 0.796875,-1.82812504 0,-0.7148437 -0.3632813,-1.2304687 -0.7265625,-1.4882812 0.5742187,-0.328125 1.1484375,-0.9375 1.1484375,-1.6640625 z m -1.7929688,1.6523437 c -0.1289062,0.058594 -0.234375,0.070312 -0.4804687,0.070312 -0.140625,0 -0.3398438,0.011719 -0.4335938,-0.035156 0.011719,-0.1054688 0.375,-0.082031 0.4804688,-0.082031 0.2109375,0 0.3046875,0 0.4335937,0.046875 z m 1.2304688,-1.875 c 0,0.6914063 -0.375,1.40625 -0.890625,1.7226563 -0.2695313,-0.1054688 -0.46875,-0.1171875 -0.7734375,-0.1171875 -0.1992188,0 -0.7617188,-0.011719 -0.7617188,0.3164062 -0.011719,0.28125 0.5039063,0.2460938 0.6914063,0.2460938 0.3632812,0 0.515625,-0.011719 0.8085937,-0.1289063 0.3867188,0.3632813 0.4335938,0.6679688 0.4453125,1.125 0.011719,0.5742188 -0.2226562,1.3242188 -0.5039062,1.7109375 -0.3867188,0.53906254 -1.0546875,0.90234379 -1.6171875,0.90234379 -0.7617188,0 -1.1367188,-0.5859375 -1.1367188,-1.28906249 0,-0.09375 0,-0.2460938 0.046875,-0.4335938 l 0.6328125,-2.5195312 c 0.2226563,-0.8554688 0.9375,-2.4492188 2.1328125,-2.4492188 0.5859375,0 0.9257813,0.3164063 0.9257813,0.9140625 z m 0,0"
           style="fill:#000000;fill-opacity:1;fill-rule:nonzero;stroke:none" />
        <path
           id="03-04-06-path24"
           d="m 12.909195,-2.4964391 c 0,-0.7734375 -0.117187,-1.9804687 -0.65625,-3.1054687 -0.597656,-1.21875 -1.464843,-1.875 -1.558593,-1.875 -0.05859,0 -0.105469,0.046875 -0.105469,0.1054687 0,0.035156 0,0.046875 0.199219,0.234375 0.972656,0.984375 1.535156,2.5664063 1.535156,4.640625 0,1.71093754 -0.363281,3.45703129 -1.59375,4.7226563 -0.140625,0.1171875 -0.140625,0.1289062 -0.140625,0.1640625 0,0.058594 0.04687,0.1054687 0.105469,0.1054687 0.09375,0 0.996093,-0.6796875 1.582031,-1.94531246 0.503906,-1.1015625 0.632812,-2.20312504 0.632812,-3.04687504 z m 0,0"
           style="fill:#000000;fill-opacity:1;fill-rule:nonzero;stroke:none" />
      </g>
      <g
         id="03-04-06-g16"
         aria-label="(α)"
         transform="translate(-88.684697)"
         style="display:inline;fill:#000000;fill-opacity:1;stroke:none">
        <path
           id="03-04-06-path17"
           d="m 3.2940906,2.3902797 c 0,-0.035156 0,-0.046875 -0.1640625,-0.2226563 -1.2421875,-1.25390621 -1.5703125,-3.12890621 -1.5703125,-4.6640625 0,-1.7226562 0.3867188,-3.4570312 1.6054688,-4.7109375 0.1289062,-0.1171875 0.1289062,-0.1289062 0.1289062,-0.1640625 0,-0.070312 -0.035156,-0.1054687 -0.09375,-0.1054687 -0.1054687,0 -0.9960937,0.6796875 -1.5820312,1.9453125 -0.515625,1.1015625 -0.63281252,2.203125 -0.63281252,3.0351562 0,0.7851563 0.11718752,1.99218754 0.65625002,3.11718754 0.5976562,1.21874996 1.453125,1.87499996 1.5585937,1.87499996 0.058594,0 0.09375,-0.035156 0.09375,-0.1054687 z m 0,0"
           style="fill:#000000;fill-opacity:1;fill-rule:nonzero;stroke:none" />
        <path
           id="03-04-06-path18"
           d="m 8.6173328,-2.3558141 c 0,-1.5585937 -0.9257812,-2.0507812 -1.6523437,-2.0507812 -1.3710938,0 -2.6835938,1.4296875 -2.6835938,2.8359375 0,0.92578124 0.5976563,1.67578124 1.6171875,1.67578124 0.6210938,0 1.3359375,-0.22265625 2.0976563,-0.83203125 0.1289062,0.52734375 0.4570312,0.83203125 0.9023437,0.83203125 0.5273438,0 0.84375,-0.5390625 0.84375,-0.703125 0,-0.0703125 -0.058594,-0.10546875 -0.1289062,-0.10546875 -0.058594,0 -0.09375,0.0351563 -0.1289063,0.10546875 -0.1757812,0.4921875 -0.5273437,0.4921875 -0.5507812,0.4921875 -0.3164063,0 -0.3164063,-0.78515625 -0.3164063,-1.01953124 0,-0.2109375 0,-0.234375 0.1054688,-0.3515625 0.9375,-1.171875 1.1484375,-2.3320313 1.1484375,-2.34375 0,-0.011719 -0.011719,-0.09375 -0.1171875,-0.09375 -0.1054688,0 -0.1054688,0.023437 -0.1523438,0.2109375 -0.1875,0.6210937 -0.515625,1.3828125 -0.984375,1.96875 z m -0.65625,1.37109379 c -0.8789062,0.76171875 -1.6523437,0.87890625 -2.0507812,0.87890625 -0.5976563,0 -0.890625,-0.45703125 -0.890625,-1.08984374 0,-0.4921875 0.2578125,-1.5585938 0.5742187,-2.0742188 0.46875,-0.7265625 1.0078125,-0.9140625 1.359375,-0.9140625 0.984375,0 0.984375,1.3007813 0.984375,2.0859375 0,0.3632813 0,0.9375 0.023437,1.11328129 z m 0,0"
           style="fill:#000000;fill-opacity:1;fill-rule:nonzero;stroke:none" />
        <path
           id="03-04-06-path19"
           d="m 13.161278,-2.4964391 c 0,-0.7734375 -0.117187,-1.9804687 -0.65625,-3.1054687 -0.597656,-1.21875 -1.464844,-1.875 -1.558594,-1.875 -0.05859,0 -0.105468,0.046875 -0.105468,0.1054687 0,0.035156 0,0.046875 0.199218,0.234375 0.972657,0.984375 1.535157,2.5664063 1.535157,4.640625 0,1.71093754 -0.363282,3.45703129 -1.59375,4.7226563 -0.140625,0.1171875 -0.140625,0.1289062 -0.140625,0.1640625 0,0.058594 0.04687,0.1054687 0.105468,0.1054687 0.09375,0 0.996094,-0.6796875 1.582032,-1.94531246 0.503906,-1.1015625 0.632812,-2.20312504 0.632812,-3.04687504 z m 0,0"
           style="fill:#000000;fill-opacity:1;fill-rule:nonzero;stroke:none" />
      </g>
      <g
         id="03-04-06-g4"
         aria-label="ω&#10;c"
         transform="translate(-40.695001,7.6069997)"
         style="fill:#000000;fill-opacity:1;stroke:none">
        <path
           id="03-04-06-path5"
           d="m 6.0231406,-3.7020719 c 0,-0.4453125 -0.1757812,-0.703125 -0.3984375,-0.703125 -0.2578125,0 -0.5273437,0.2460938 -0.5273437,0.46875 0,0.1054688 0.046875,0.2109375 0.1523437,0.3046875 0.1640625,0.140625 0.3515625,0.4101563 0.3515625,0.8320313 0,0.3984375 -0.1875,0.9726562 -0.5039062,1.4296875 -0.2929688,0.42187497 -0.6679688,0.76171872 -1.1367188,0.76171872 -0.5625,0 -0.8671875,-0.3515625 -0.9609375,-0.89062502 0.1054688,-0.2578125 0.3398438,-0.9023437 0.3398438,-1.1835937 0,-0.1171875 -0.046875,-0.2109375 -0.1875,-0.2109375 -0.070312,0 -0.1875,0.011719 -0.2578125,0.1640625 -0.1171875,0.1992187 -0.234375,0.84375 -0.234375,1.2070312 -0.328125,0.46875 -0.7265625,0.91406252 -1.359375,0.91406252 -0.65625003,0 -0.86718753,-0.58593752 -0.86718753,-1.14843752 0,-1.2421875 1.01953123,-2.2851562 1.01953123,-2.4140625 0,-0.1171875 -0.082031,-0.1875 -0.1875,-0.1875 -0.1289062,0 -0.1992187,0.1289063 -0.2578125,0.2109375 -0.50390623,0.7382813 -0.89062498,1.921875 -0.89062498,2.8359375 0,0.67968752 0.234375,1.41796877 1.04296878,1.41796877 0.7148437,0 1.1835937,-0.4921875 1.5351562,-1.04296875 0.09375,0.57421875 0.4804688,1.04296875 1.1015625,1.04296875 0.7734375,0 1.2539063,-0.609375 1.6171875,-1.34765627 0.234375,-0.4921875 0.609375,-1.8515625 0.609375,-2.4609375 z m 0,0"
           style="display:inline;fill:#000000;fill-opacity:1;fill-rule:nonzero;stroke:none" />
        <path
           id="03-04-06-path6"
           d="m 9.2604453,-1.1766813 c -0.2578125,0.046875 -0.3632812,0.23437505 -0.3632812,0.3867188 0,0.1875 0.1523437,0.2578125 0.2695312,0.2578125 0.1640625,0 0.3984375,-0.10546875 0.3984375,-0.4453125 0,-0.46875 -0.5390625,-0.5976563 -0.9140625,-0.5976563 -1.0429687,0 -2.015625,0.96093755 -2.015625,1.92187505 0,0.609375 0.421875,1.21874995 1.2890625,1.21874995 1.1835938,0 1.734375,-0.6914062 1.734375,-0.7851562 0,-0.046875 -0.070312,-0.1171875 -0.1289062,-0.1171875 -0.035156,0 -0.046875,0.0117188 -0.1054688,0.0703125 -0.5507812,0.6328125 -1.359375,0.6328125 -1.4882812,0.6328125 -0.5039063,0 -0.7265625,-0.3398438 -0.7265625,-0.7734375 0,-0.19921875 0.1054687,-0.9609375 0.46875,-1.44140625 C 7.9362266,-1.1884 8.2995078,-1.3876188 8.6510703,-1.3876188 c 0.09375,0 0.4335938,0.011719 0.609375,0.2109375 z m 0,0"
           style="display:inline;fill:#000000;fill-opacity:1;fill-rule:nonzero;stroke:none" />
      </g>
      <path
         id="03-04-06-path11"
         d="m 4.0772578,-2.2964484 h 2.7773438 c 0.140625,0 0.328125,0 0.328125,-0.1992188 0,-0.1992187 -0.1875,-0.1992187 -0.328125,-0.1992187 H 4.0772578 v -2.7890625 c 0,-0.1289063 0,-0.328125 -0.1992187,-0.328125 -0.1992188,0 -0.1992188,0.1992187 -0.1992188,0.328125 v 2.7890625 H 0.88975781 c -0.140625,0 -0.328125,0 -0.328125,0.1992187 0,0.1992188 0.1875,0.1992188 0.328125,0.1992188 H 3.6788203 v 2.80078121 c 0,0.12890625 0,0.328125 0.1992188,0.328125 0.1992187,0 0.1992187,-0.19921875 0.1992187,-0.328125 z m 0,0"
         style="display:inline;fill:#000000;fill-opacity:1;fill-rule:nonzero;stroke:none"
         transform="translate(88.121005,8.7004)" />
      <path
         id="03-04-06-path12"
         d="m 48.614367,-5.1118781 c 0.04687,-0.140625 0.04687,-0.1523438 0.04687,-0.2226563 0,-0.1875 -0.140625,-0.2695312 -0.292969,-0.2695312 -0.105468,0 -0.257812,0.058594 -0.351562,0.1992187 -0.02344,0.058594 -0.09375,0.3632813 -0.140625,0.5390625 -0.07031,0.2578125 -0.140625,0.5273438 -0.199219,0.796875 l -0.445312,1.7929688 c -0.03516,0.1523437 -0.46875,0.8554687 -1.125,0.8554687 -0.503907,0 -0.621094,-0.4453125 -0.621094,-0.8085937 0,-0.4570313 0.175781,-1.078125 0.515625,-1.9570313 0.152344,-0.4101562 0.199219,-0.515625 0.199219,-0.7148437 0,-0.4453125 -0.328125,-0.8203125 -0.820313,-0.8203125 -0.949219,0 -1.3125,1.453125 -1.3125,1.5351562 0,0.1054688 0.09375,0.1054688 0.117188,0.1054688 0.09375,0 0.105468,-0.023437 0.152343,-0.1875 0.269532,-0.9375 0.667969,-1.2304688 1.007813,-1.2304688 0.08203,0 0.257812,0 0.257812,0.3164063 0,0.2460937 -0.105468,0.515625 -0.175781,0.703125 -0.398437,1.0546875 -0.574219,1.6171875 -0.574219,2.0859375 0,0.890625 0.621094,1.1835937 1.21875,1.1835937 0.386719,0 0.726563,-0.1640625 0.996094,-0.4453125 -0.128906,0.515625 -0.246094,1.00781252 -0.644531,1.53515627 -0.257813,0.33984375 -0.632813,0.6328125 -1.089844,0.6328125 -0.140625,0 -0.597656,-0.0351563 -0.761719,-0.421875 0.164063,0 0.292969,0 0.433594,-0.1171875 0.09375,-0.09375 0.199219,-0.22265625 0.199219,-0.41015625 0,-0.31640625 -0.269531,-0.3515625 -0.375,-0.3515625 -0.222656,0 -0.550781,0.1640625 -0.550781,0.64453125 0,0.50390625 0.433593,0.8671875 1.054687,0.8671875 1.019531,0 2.050781,-0.90234375 2.332031,-2.02734377 z m 0,0"
         style="display:inline;fill:#000000;fill-opacity:1;fill-rule:nonzero;stroke:none"
         transform="translate(88.121005,8.7004)" />
      <g
         id="03-04-06-g7"
         aria-label="1/s"
         transform="translate(42.159001,8.7004)"
         style="display:inline;fill:#000000;fill-opacity:1;stroke:none">
        <path
           id="03-04-06-path8"
           d="m 2.9298828,-6.3745734 c 0,-0.234375 0,-0.2578125 -0.234375,-0.2578125 -0.609375,0.6328125 -1.4882812,0.6328125 -1.80468749,0.6328125 v 0.3164062 c 0.19921879,0 0.78515629,0 1.30078129,-0.2578125 v 5.15625001 c 0,0.3515625 -0.035156,0.48046875 -0.9257813,0.48046875 H 0.94941406 V 4.265625e-4 C 1.3009766,-0.03472969 2.1564453,-0.03472969 2.5548828,-0.03472969 c 0.3984375,0 1.265625,0 1.6171875,0.0351562525 V -0.30426094 H 3.8556641 c -0.9023438,0 -0.9257813,-0.1171875 -0.9257813,-0.48046875 z m 0,0"
           style="fill:#000000;fill-opacity:1;fill-rule:nonzero;stroke:none" />
        <path
           id="03-04-06-path9"
           d="m 9.3488281,-7.0894172 c 0.046875,-0.1289062 0.046875,-0.1757812 0.046875,-0.1875 0,-0.1054687 -0.082031,-0.1992187 -0.1992187,-0.1992187 -0.070312,0 -0.1289063,0.035156 -0.1640625,0.09375 L 5.5753906,2.1098016 c -0.046875,0.1289062 -0.046875,0.1757812 -0.046875,0.1875 0,0.1054687 0.082031,0.1992187 0.1992188,0.1992187 0.1289062,0 0.1523437,-0.070312 0.2109375,-0.2460937 z m 4.4970699,3.3632813 c -0.269531,0.011719 -0.46875,0.234375 -0.46875,0.4453125 0,0.140625 0.08203,0.2929687 0.304688,0.2929687 0.222656,0 0.457031,-0.1640625 0.457031,-0.5625 0,-0.4453125 -0.433594,-0.8554687 -1.183594,-0.8554687 -1.3125,0 -1.6875,1.0195312 -1.6875,1.453125 0,0.7851562 0.738282,0.9257812 1.03125,0.9960937 0.515625,0.09375 1.03125,0.1992188 1.03125,0.75 0,0.25781251 -0.222656,1.10156251 -1.417968,1.10156251 -0.140625,0 -0.914063,0 -1.136719,-0.52734375 0.375,0.046875 0.621094,-0.2578125 0.621094,-0.52734376 0,-0.234375 -0.152344,-0.3515625 -0.363282,-0.3515625 -0.257812,0 -0.5625,0.2109375 -0.5625,0.65625001 0,0.5625 0.574219,0.9609375 1.429688,0.9609375 1.605469,0 2.003906,-1.20703121 2.003906,-1.65234371 0,-0.3515625 -0.199219,-0.609375 -0.316406,-0.7265625 -0.269531,-0.28125 -0.550781,-0.328125 -0.996094,-0.421875 -0.351562,-0.070312 -0.75,-0.140625 -0.75,-0.5976563 0,-0.28125 0.234375,-0.890625 1.113281,-0.890625 0.246094,0 0.75,0.070312 0.890625,0.4570313 z m 0,0"
           style="fill:#000000;fill-opacity:1;fill-rule:nonzero;stroke:none" />
      </g>
      <path
         id="03-04-06-path1"
         d="m 3.3294909,-3.0108953 c 0.058594,-0.2578125 0.2929688,-1.171875 0.984375,-1.171875 0.046875,0 0.2929688,0 0.5039063,0.1289062 -0.28125,0.046875 -0.4804688,0.3046875 -0.4804688,0.5390625 0,0.1640625 0.1054688,0.3515625 0.375,0.3515625 0.2226563,0 0.5390625,-0.1875 0.5390625,-0.5859375 0,-0.515625 -0.5859375,-0.65625 -0.9257812,-0.65625 -0.5742188,0 -0.9257813,0.5273438 -1.0429688,0.7617188 -0.2578125,-0.65625 -0.7851562,-0.7617188 -1.078125,-0.7617188 -1.0429687,0 -1.60546871,1.2890625 -1.60546871,1.5351563 0,0.1054687 0.10546875,0.1054687 0.1171875,0.1054687 0.0820313,0 0.1171875,-0.023437 0.12890625,-0.1171875 0.33984376,-1.0546875 0.99609376,-1.3007812 1.33593746,-1.3007812 0.1875,0 0.5390625,0.09375 0.5390625,0.6679687 0,0.3046875 -0.1640625,0.9726563 -0.5390625,2.3671875 -0.1523437,0.62109379 -0.5039062,1.04296879 -0.9492187,1.04296879 -0.058594,0 -0.28125001,0 -0.49218751,-0.12890625 0.24609375,-0.0585938 0.46875001,-0.26953125 0.46875001,-0.5390625 0,-0.26953124 -0.22265626,-0.35156254 -0.37500001,-0.35156254 -0.29296875,0 -0.5390625,0.25781254 -0.5390625,0.57421879 0,0.45703125 0.4921875,0.65625 0.93750001,0.65625 0.65625,0 1.0078125,-0.69140625 1.0429687,-0.75 0.1171875,0.36328125 0.4804688,0.75 1.078125,0.75 1.0195313,0 1.59375,-1.27734379 1.59375,-1.53515629 0,-0.09375 -0.09375,-0.09375 -0.1289062,-0.09375 -0.082031,0 -0.1054688,0.035156 -0.1289063,0.1054688 -0.328125,1.06640624 -0.9960937,1.31249999 -1.3242187,1.31249999 -0.3867188,0 -0.5390625,-0.328125 -0.5390625,-0.65625 0,-0.22265625 0.058594,-0.44531249 0.1640625,-0.87890629 z m 0,0"
         style="fill:#000000;fill-opacity:1;fill-rule:nonzero;stroke:none"
         aria-label="x"
         transform="translate(-165.97303,8.3542997)" />
      <path
         id="03-04-06-path31"
         d="m 6.5615203,-2.297075 c 0.1757813,0 0.3515625,0 0.3515625,-0.1992187 0,-0.1992188 -0.1757812,-0.1992188 -0.3515625,-0.1992188 h -5.390625 c -0.1640625,0 -0.33984374,0 -0.33984374,0.1992188 0,0.1992187 0.17578124,0.1992187 0.33984374,0.1992187 z m 0,0"
         style="fill:#000000;fill-opacity:1;fill-rule:nonzero;stroke:none"
         aria-label="−"
         transform="translate(-116.8867,24.043801)" />
      <path
         id="03-04-06-path3"
         d="m 4.0767953,-2.2964484 h 2.7773438 c 0.140625,0 0.328125,0 0.328125,-0.1992188 0,-0.1992187 -0.1875,-0.1992187 -0.328125,-0.1992187 H 4.0767953 v -2.7890625 c 0,-0.1289063 0,-0.328125 -0.1992187,-0.328125 -0.1992188,0 -0.1992188,0.1992187 -0.1992188,0.328125 v 2.7890625 H 0.88929531 c -0.140625,0 -0.328125,0 -0.328125,0.1992187 0,0.1992188 0.1875,0.1992188 0.328125,0.1992188 H 3.6783578 v 2.80078121 c 0,0.12890625 0,0.328125 0.1992188,0.328125 0.1992187,0 0.1992187,-0.19921875 0.1992187,-0.328125 z m 0,0"
         style="fill:#000000;fill-opacity:1;fill-rule:nonzero;stroke:none"
         aria-label="+"
         transform="translate(-124.4801,8.7004)" />
    </g>
  </g>
</svg>
