<?xml version="1.0" encoding="UTF-8" standalone="no"?>
<!-- Created with Inkscape (http://www.inkscape.org/) -->

<svg
   version="1.1"
   width="413"
   height="259.49332"
   viewBox="0 0 413 259.49332"
   xmlns="http://www.w3.org/2000/svg"
   xmlns:svg="http://www.w3.org/2000/svg">
  <g
     id="07-12-04g1"
     style="display:inline;fill:none;stroke:none">
    <g
       id="07-12-04g110"
       class="has-stroke  has-fill"
       style="stroke:#000000;stroke-opacity:1;fill:#000000;fill-opacity:1">
      <g
         id="07-12-04g102"
         style="display:inline;fill-opacity:1;stroke:#000000;stroke-opacity:1;fill:#000000">
        <path
           id="07-12-04path50"
           d="m 392.469,1804.25 -41.535,15.71 13.773,-15.71 -13.773,-15.71 z"
           style="fill-opacity:1;fill-rule:nonzero;stroke:#000000;stroke-opacity:1;fill:#000000"
           transform="matrix(0.13333333,0,0,-0.13333333,0,259.49333)" />
        <path
           id="07-12-04path52"
           d="m 1300.79,1804.25 -41.54,15.71 13.78,-15.71 -13.78,-15.71 z"
           style="fill-opacity:1;fill-rule:nonzero;stroke:#000000;stroke-opacity:1;fill:#000000"
           transform="matrix(0.13333333,0,0,-0.13333333,0,259.49333)" />
        <path
           id="07-12-04path54"
           d="m 1725.99,1804.25 -41.54,15.71 13.78,-15.71 -13.78,-15.71 z"
           style="fill-opacity:1;fill-rule:nonzero;stroke:#000000;stroke-opacity:1;fill:#000000"
           transform="matrix(0.13333333,0,0,-0.13333333,0,259.49333)" />
        <path
           id="07-12-04path58"
           d="m 2022.88,1804.25 -41.53,15.71 13.78,-15.71 -13.78,-15.71 z"
           style="fill-opacity:1;fill-rule:nonzero;stroke:#000000;stroke-opacity:1;fill:#000000"
           transform="matrix(0.13333333,0,0,-0.13333333,0,259.49333)" />
        <path
           id="07-12-04path60"
           d="m 2518.48,1804.25 -41.53,15.71 13.77,-15.71 -13.77,-15.71 z"
           style="fill-opacity:1;fill-rule:nonzero;stroke:#000000;stroke-opacity:1;fill:#000000"
           transform="matrix(0.13333333,0,0,-0.13333333,0,259.49333)" />
        <path
           id="07-12-04path62"
           d="m 2965.31,1804.25 -41.54,15.71 13.78,-15.71 -13.78,-15.71 z"
           style="fill-opacity:1;fill-rule:nonzero;stroke:#000000;stroke-opacity:1;fill:#000000"
           transform="matrix(0.13333333,0,0,-0.13333333,0,259.49333)" />
        <path
           id="07-12-04path64"
           d="m 581.234,953.844 41.536,-15.703 -13.774,15.703 13.774,15.707 z"
           style="fill-opacity:1;fill-rule:nonzero;stroke:#000000;stroke-opacity:1;fill:#000000"
           transform="matrix(0.13333333,0,0,-0.13333333,0,259.49333)" />
        <path
           id="07-12-04path66"
           d="m 1076.83,953.844 41.54,-15.703 -13.78,15.703 13.78,15.707 z"
           style="fill-opacity:1;fill-rule:nonzero;stroke:#000000;stroke-opacity:1;fill:#000000"
           transform="matrix(0.13333333,0,0,-0.13333333,0,259.49333)" />
        <path
           id="07-12-04path68"
           d="m 2022.88,953.844 -41.53,15.707 13.78,-15.707 -13.78,-15.703 z"
           style="fill-opacity:1;fill-rule:nonzero;stroke:#000000;stroke-opacity:1;fill:#000000"
           transform="matrix(0.13333333,0,0,-0.13333333,0,259.49333)" />
        <path
           id="07-12-04path70"
           d="m 2518.48,953.844 -41.53,15.707 13.77,-15.707 -13.77,-15.703 z"
           style="fill-opacity:1;fill-rule:nonzero;stroke:#000000;stroke-opacity:1;fill:#000000"
           transform="matrix(0.13333333,0,0,-0.13333333,0,259.49333)" />
        <path
           id="07-12-04path74"
           d="m 2022.88,103.441 -41.53,15.707 13.78,-15.707 -13.78,-15.7066 z"
           style="fill-opacity:1;fill-rule:nonzero;stroke:#000000;stroke-opacity:1;fill:#000000"
           transform="matrix(0.13333333,0,0,-0.13333333,0,259.49333)" />
        <path
           id="07-12-04path76"
           d="m 486.852,1709.87 -15.707,-41.54 15.707,13.78 15.707,-13.78 z"
           style="fill-opacity:1;fill-rule:nonzero;stroke:#000000;stroke-opacity:1;fill:#000000"
           transform="matrix(0.13333333,0,0,-0.13333333,0,259.49333)" />
        <path
           id="07-12-04path78"
           d="m 1337.26,1494.01 15.7,41.54 -15.7,-13.78 -15.71,13.78 z"
           style="fill-opacity:1;fill-rule:nonzero;stroke:#000000;stroke-opacity:1;fill:#000000"
           transform="matrix(0.13333333,0,0,-0.13333333,0,259.49333)" />
        <path
           id="07-12-04path80"
           d="m 1337.26,990.316 15.7,41.534 -15.7,-13.77 -15.71,13.77 z"
           style="fill-opacity:1;fill-rule:nonzero;stroke:#000000;stroke-opacity:1;fill:#000000"
           transform="matrix(0.13333333,0,0,-0.13333333,0,259.49333)" />
        <path
           id="07-12-04path85"
           d="m 1337.26,139.91 15.7,41.535 -15.7,-13.773 -15.71,13.773 z"
           style="fill-opacity:1;fill-rule:nonzero;stroke:#000000;stroke-opacity:1;fill:#000000"
           transform="matrix(0.13333333,0,0,-0.13333333,0,259.49333)" />
        <path
           id="07-12-04path88"
           d="m 1762.46,1494.01 15.7,41.54 -15.7,-13.78 -15.71,13.78 z"
           style="fill-opacity:1;fill-rule:nonzero;stroke:#000000;stroke-opacity:1;fill:#000000"
           transform="matrix(0.13333333,0,0,-0.13333333,0,259.49333)" />
        <path
           id="07-12-04path90"
           d="m 1762.46,990.316 15.7,41.534 -15.7,-13.77 -15.71,13.77 z"
           style="fill-opacity:1;fill-rule:nonzero;stroke:#000000;stroke-opacity:1;fill:#000000"
           transform="matrix(0.13333333,0,0,-0.13333333,0,259.49333)" />
        <path
           id="07-12-04path93"
           d="m 1762.46,643.605 15.7,41.536 -15.7,-13.774 -15.71,13.774 z"
           style="fill-opacity:1;fill-rule:nonzero;stroke:#000000;stroke-opacity:1;fill:#000000"
           transform="matrix(0.13333333,0,0,-0.13333333,0,259.49333)" />
        <path
           id="07-12-04path95"
           d="m 1762.46,139.91 15.7,41.535 -15.7,-13.773 -15.71,13.773 z"
           style="fill-opacity:1;fill-rule:nonzero;stroke:#000000;stroke-opacity:1;fill:#000000"
           transform="matrix(0.13333333,0,0,-0.13333333,0,259.49333)" />
        <path
           id="07-12-04path102"
           d="m 2612.86,859.465 -15.7,-41.535 15.7,13.773 15.71,-13.773 z"
           style="fill-opacity:1;fill-rule:nonzero;stroke:#000000;stroke-opacity:1;fill:#000000"
           transform="matrix(0.13333333,0,0,-0.13333333,0,259.49333)" />
        <path
           id="07-12-04path100"
           d="m 486.852,859.465 -15.707,-41.535 15.707,13.773 15.707,-13.773 z"
           style="display:inline;fill-opacity:1;fill-rule:nonzero;stroke:#000000;stroke-opacity:1;fill:#000000"
           transform="matrix(0.13333333,0,0,-0.13333333,0,259.49333)" />
        <path
           id="07-12-04path83"
           d="m 1337.26,643.605 15.7,41.536 -15.7,-13.774 -15.71,13.774 z"
           style="fill-opacity:1;fill-rule:nonzero;stroke:#000000;stroke-opacity:1;fill:#000000"
           transform="matrix(0.13333333,0,0,-0.13333333,0,259.49333)" />
        <path
           id="07-12-04path72"
           d="m 1076.83,103.441 41.54,-15.7066 -13.78,15.7066 13.78,15.707 z"
           style="fill-opacity:1;fill-rule:nonzero;stroke:#000000;stroke-opacity:1;fill:#000000"
           transform="matrix(0.13333333,0,0,-0.13333333,0,259.49333)" />
        <path
           id="07-12-04path98"
           d="m 2612.86,1709.87 -15.7,-41.54 15.7,13.78 15.71,-13.78 z"
           style="fill-opacity:1;fill-rule:nonzero;stroke:#000000;stroke-opacity:1;fill:#000000"
           transform="matrix(0.13333333,0,0,-0.13333333,0,259.49333)" />
      </g>
    </g>
    <g
       id="07-12-04g109"
       style="display:inline;fill-opacity:1;stroke:none;fill:#000000"
       class="has-fill">
      <g
         id="07-12-04g103"
         style="display:inline;fill-opacity:1;stroke:none;stroke-opacity:1;fill:#000000">
        <path
           id="07-12-04path1"
           d="m 3.3294909,-3.0128516 c 0.058594,-0.2578125 0.2929688,-1.171875 0.984375,-1.171875 0.046875,0 0.2929688,0 0.5039063,0.1289063 -0.28125,0.046875 -0.4804688,0.3046875 -0.4804688,0.5390625 0,0.1640625 0.1054688,0.3515625 0.375,0.3515625 0.2226563,0 0.5390625,-0.1875 0.5390625,-0.5859375 0,-0.515625 -0.5859375,-0.65625 -0.9257812,-0.65625 -0.5742188,0 -0.9257813,0.5273437 -1.0429688,0.7617187 -0.2578125,-0.65625 -0.7851562,-0.7617187 -1.078125,-0.7617187 -1.0429687,0 -1.60546871,1.2890625 -1.60546871,1.5351562 0,0.1054688 0.10546875,0.1054688 0.1171875,0.1054688 0.0820313,0 0.1171875,-0.023437 0.12890625,-0.1171875 0.33984376,-1.0546875 0.99609376,-1.3007813 1.33593746,-1.3007813 0.1875,0 0.5390625,0.09375 0.5390625,0.6679688 0,0.3046875 -0.1640625,0.9726562 -0.5390625,2.3671875 -0.1523437,0.62109374 -0.5039062,1.04296874 -0.9492187,1.04296874 -0.058594,0 -0.28125001,0 -0.49218751,-0.12890625 0.24609375,-0.0585937 0.46875001,-0.26953125 0.46875001,-0.5390625 0,-0.26953129 -0.22265626,-0.35156249 -0.37500001,-0.35156249 -0.29296875,0 -0.5390625,0.25781249 -0.5390625,0.57421874 0,0.45703125 0.4921875,0.65625 0.93750001,0.65625 0.65625,0 1.0078125,-0.69140625 1.0429687,-0.75 0.1171875,0.36328125 0.4804688,0.75 1.078125,0.75 1.0195313,0 1.59375,-1.27734374 1.59375,-1.53515624 0,-0.09375 -0.09375,-0.09375 -0.1289062,-0.09375 -0.082031,0 -0.1054688,0.035156 -0.1289063,0.1054687 -0.328125,1.06640629 -0.9960937,1.31250004 -1.3242187,1.31250004 -0.3867188,0 -0.5390625,-0.328125 -0.5390625,-0.65625 0,-0.22265625 0.058594,-0.44531254 0.1640625,-0.87890624 z m 0,0"
           style="fill-opacity:1;fill-rule:nonzero;stroke:none;stroke-opacity:1;fill:#000000"
           aria-label="x"
           transform="matrix(1.3333333,0,0,1.3333333,4.42396,21.786667)" />
        <path
           id="07-12-04path3"
           d="m 4.0767953,-2.2983047 h 2.7773438 c 0.140625,0 0.328125,0 0.328125,-0.1992187 0,-0.1992188 -0.1875,-0.1992188 -0.328125,-0.1992188 H 4.0767953 v -2.7890625 c 0,-0.1289062 0,-0.328125 -0.1992187,-0.328125 -0.1992188,0 -0.1992188,0.1992188 -0.1992188,0.328125 v 2.7890625 H 0.88929531 c -0.140625,0 -0.328125,0 -0.328125,0.1992188 0,0.1992187 0.1875,0.1992187 0.328125,0.1992187 H 3.6783578 v 2.80078126 c 0,0.12890625 0,0.328125 0.1992188,0.328125 0.1992187,0 0.1992187,-0.19921875 0.1992187,-0.328125 z m 0,0"
           style="fill-opacity:1;fill-rule:nonzero;stroke:none;stroke-opacity:1;fill:#000000"
           aria-label="+"
           transform="matrix(1.3333333,0,0,1.3333333,59.747867,22.248)" />
        <g
           id="07-12-04g6"
           aria-label="+b&#10;0"
           transform="matrix(1.3333333,0,0,1.3333333,280.692,22.542667)"
           style="fill-opacity:1;stroke:none;stroke-opacity:1;fill:#000000">
          <path
             id="07-12-04path7"
             d="m 4.0776797,-2.2966484 h 2.7773437 c 0.140625,0 0.328125,0 0.328125,-0.1992188 0,-0.1992187 -0.1875,-0.1992187 -0.328125,-0.1992187 H 4.0776797 v -2.7890625 c 0,-0.1289063 0,-0.328125 -0.1992188,-0.328125 -0.1992187,0 -0.1992187,0.1992187 -0.1992187,0.328125 v 2.7890625 H 0.89017969 c -0.140625,0 -0.328125,0 -0.328125,0.1992187 0,0.1992188 0.1875,0.1992188 0.328125,0.1992188 H 3.6792422 v 2.80078121 c 0,0.12890625 0,0.328125 0.1992187,0.328125 0.1992188,0 0.1992188,-0.19921875 0.1992188,-0.328125 z m 0,0"
             style="fill-opacity:1;fill-rule:nonzero;stroke:none;stroke-opacity:1;fill:#000000" />
          <path
             id="07-12-04path8"
             d="m 10.127484,-6.8083672 c 0,0 0,-0.1054687 -0.1289059,-0.1054687 -0.2226562,0 -0.9492187,0.082031 -1.21875,0.1054687 -0.070312,0 -0.1875,0.011719 -0.1875,0.1992188 0,0.1171875 0.09375,0.1171875 0.2460938,0.1171875 0.46875,0 0.4921875,0.070312 0.4921875,0.1640625 0,0.070312 -0.082031,0.4101562 -0.140625,0.6210937 l -0.8085938,3.2460938 c -0.1289062,0.5039062 -0.1640625,0.65625 -0.1640625,1.0078125 0,0.94921871 0.5273438,1.55859371 1.265625,1.55859371 1.1718749,0 2.4023439,-1.47656251 2.4023439,-2.91796871 0,-0.9023438 -0.527344,-1.59375 -1.324219,-1.59375 -0.457031,0 -0.8671874,0.2929687 -1.1718749,0.5976562 z m -0.9374996,3.7734375 c 0.058594,-0.2226562 0.058594,-0.2460937 0.1523437,-0.3515625 0.4921875,-0.6445312 0.9374999,-0.796875 1.1953129,-0.796875 0.363281,0 0.632812,0.2929688 0.632812,0.9375 0,0.5859375 -0.328125,1.734375 -0.515625,2.109375 -0.328125,0.66796876 -0.7851561,1.03125001 -1.1718749,1.03125001 -0.3398437,0 -0.6679687,-0.26953125 -0.6679687,-1.00781251 0,-0.1875 0,-0.3867187 0.1640625,-1.0078125 z m 0,0"
             style="fill-opacity:1;fill-rule:nonzero;stroke:none;stroke-opacity:1;fill:#000000" />
          <path
             id="07-12-04path9"
             d="m 15.620648,-0.73219531 c 0,-0.76171879 -0.09375,-1.31249999 -0.410156,-1.80468749 -0.222656,-0.3164063 -0.644531,-0.5976563 -1.207031,-0.5976563 -1.617188,0 -1.617188,1.8984375 -1.617188,2.40234379 0,0.50390625 0,2.36718751 1.617188,2.36718751 1.617187,0 1.617187,-1.86328126 1.617187,-2.36718751 z M 14.003461,1.4357734 c -0.316406,0 -0.75,-0.1875 -0.890625,-0.76171871 -0.09375,-0.41015625 -0.09375,-0.984375 -0.09375,-1.5 0,-0.50390629 0,-1.03124999 0.105469,-1.41796879 0.152343,-0.5507812 0.597656,-0.6914062 0.878906,-0.6914062 0.375,0 0.738281,0.2226562 0.867187,0.6328125 0.105469,0.375 0.117188,0.8789062 0.117188,1.47656249 0,0.515625 0,1.04296875 -0.09375,1.4765625 C 14.753461,1.2834297 14.284711,1.4357734 14.003461,1.4357734 Z m 0,0"
             style="fill-opacity:1;fill-rule:nonzero;stroke:none;stroke-opacity:1;fill:#000000" />
        </g>
        <g
           id="07-12-04g10"
           aria-label="+&#10;y"
           transform="matrix(1.3333333,0,0,1.3333333,343.216,22.248)"
           style="fill-opacity:1;stroke:none;stroke-opacity:1;fill:#000000">
          <path
             id="07-12-04path11"
             d="m 4.0772578,-2.2983047 h 2.7773438 c 0.140625,0 0.328125,0 0.328125,-0.1992187 0,-0.1992188 -0.1875,-0.1992188 -0.328125,-0.1992188 H 4.0772578 v -2.7890625 c 0,-0.1289062 0,-0.328125 -0.1992187,-0.328125 -0.1992188,0 -0.1992188,0.1992188 -0.1992188,0.328125 v 2.7890625 H 0.88975781 c -0.140625,0 -0.328125,0 -0.328125,0.1992188 0,0.1992187 0.1875,0.1992187 0.328125,0.1992187 H 3.6788203 v 2.80078126 c 0,0.12890625 0,0.328125 0.1992188,0.328125 0.1992187,0 0.1992187,-0.19921875 0.1992187,-0.328125 z m 0,0"
             style="fill-opacity:1;fill-rule:nonzero;stroke:none;stroke-opacity:1;fill:#000000" />
          <path
             id="07-12-04path12"
             d="m 48.614367,-5.1108047 c 0.04687,-0.140625 0.04687,-0.1523437 0.04687,-0.2226562 0,-0.1875 -0.140625,-0.2695313 -0.292969,-0.2695313 -0.105468,0 -0.257812,0.058594 -0.351562,0.1992188 -0.02344,0.058594 -0.09375,0.3632812 -0.140625,0.5390625 -0.07031,0.2578125 -0.140625,0.5273437 -0.199219,0.796875 l -0.445312,1.7929687 c -0.03516,0.1523438 -0.46875,0.8554688 -1.125,0.8554688 -0.503907,0 -0.621094,-0.4453125 -0.621094,-0.8085938 0,-0.4570312 0.175781,-1.078125 0.515625,-1.9570312 0.152344,-0.4101563 0.199219,-0.515625 0.199219,-0.7148438 0,-0.4453125 -0.328125,-0.8203125 -0.820313,-0.8203125 -0.949219,0 -1.3125,1.453125 -1.3125,1.5351563 0,0.1054687 0.09375,0.1054687 0.117188,0.1054687 0.09375,0 0.105468,-0.023437 0.152343,-0.1875 0.269532,-0.9375 0.667969,-1.2304687 1.007813,-1.2304687 0.08203,0 0.257812,0 0.257812,0.3164062 0,0.2460938 -0.105468,0.515625 -0.175781,0.703125 -0.398437,1.0546875 -0.574219,1.6171875 -0.574219,2.0859375 0,0.890625 0.621094,1.1835938 1.21875,1.1835938 0.386719,0 0.726563,-0.1640625 0.996094,-0.4453125 -0.128906,0.515625 -0.246094,1.00781246 -0.644531,1.53515621 -0.257813,0.33984375 -0.632813,0.6328125 -1.089844,0.6328125 -0.140625,0 -0.597656,-0.0351562 -0.761719,-0.421875 0.164063,0 0.292969,0 0.433594,-0.1171875 0.09375,-0.09375 0.199219,-0.22265625 0.199219,-0.41015625 0,-0.31640625 -0.269531,-0.3515625 -0.375,-0.3515625 -0.222656,0 -0.550781,0.1640625 -0.550781,0.64453125 0,0.50390625 0.433593,0.8671875 1.054687,0.8671875 1.019531,0 2.050781,-0.90234375 2.332031,-2.02734371 z m 0,0"
             style="fill-opacity:1;fill-rule:nonzero;stroke:none;stroke-opacity:1;fill:#000000" />
        </g>
        <g
           id="07-12-04g13"
           aria-label="1/z"
           transform="matrix(1.3333333,0,0,1.3333333,168.27867,78.941333)"
           style="fill-opacity:1;stroke:none;stroke-opacity:1;fill:#000000">
          <path
             id="07-12-04path14"
             d="m 2.9286953,-6.3749453 c 0,-0.234375 0,-0.2578125 -0.234375,-0.2578125 -0.609375,0.6328125 -1.4882812,0.6328125 -1.80468749,0.6328125 v 0.3164062 c 0.19921879,0 0.78515629,0 1.30078129,-0.2578125 v 5.15625004 c 0,0.3515625 -0.035156,0.48046875 -0.9257813,0.48046875 H 0.94822656 V 5.46875e-5 C 1.2997891,-0.03510156 2.1552578,-0.03510156 2.5536953,-0.03510156 c 0.3984375,0 1.265625,0 1.6171875,0.0351562475 V -0.30463281 H 3.8544766 c -0.9023438,0 -0.9257813,-0.1171875 -0.9257813,-0.48046875 z m 0,0"
             style="fill-opacity:1;fill-rule:nonzero;stroke:none;stroke-opacity:1;fill:#000000" />
          <path
             id="07-12-04path15"
             d="m 9.3476406,-7.0897891 c 0.046875,-0.1289062 0.046875,-0.1757812 0.046875,-0.1875 0,-0.1054687 -0.082031,-0.1992187 -0.1992187,-0.1992187 -0.070312,0 -0.1289063,0.035156 -0.1640625,0.09375 L 5.5742031,2.1094297 c -0.046875,0.1289062 -0.046875,0.1757812 -0.046875,0.1875 0,0.1054687 0.082031,0.1992187 0.1992188,0.1992187 0.1289062,0 0.1523437,-0.070312 0.2109375,-0.2460937 z m 1.9306644,6.25781254 c 0.539062,-0.57421874 0.832031,-0.82031254 1.183593,-1.12500004 0,-0.011719 0.621094,-0.5390625 0.984375,-0.9023437 0.9375,-0.9257813 1.160157,-1.40625 1.160157,-1.4414063 0,-0.1054687 -0.09375,-0.1054687 -0.105469,-0.1054687 -0.07031,0 -0.105469,0.023437 -0.152344,0.1171875 -0.304687,0.46875 -0.503906,0.6328125 -0.75,0.6328125 -0.234375,0 -0.351562,-0.1523438 -0.503906,-0.3164063 -0.1875,-0.234375 -0.363281,-0.4335937 -0.691406,-0.4335937 -0.75,0 -1.207032,0.9257812 -1.207032,1.1367187 0,0.046875 0.03516,0.1171875 0.117188,0.1171875 0.09375,0 0.117187,-0.058594 0.140625,-0.1171875 0.1875,-0.4570312 0.761719,-0.46875 0.84375,-0.46875 0.210937,0 0.398437,0.070312 0.621094,0.1523438 0.398437,0.1523437 0.515625,0.1523437 0.773437,0.1523437 -0.363281,0.421875 -1.195312,1.1367188 -1.382812,1.3007813 l -0.902344,0.8320312 c -0.679688,0.66796879 -1.019531,1.24218754 -1.019531,1.31250004 0,0.09375 0.09375,0.09375 0.117187,0.09375 0.08203,0 0.09375,-0.01171875 0.152344,-0.12890625 0.234375,-0.33984375 0.527344,-0.609375 0.855469,-0.609375 0.222656,0 0.328125,0.0820313 0.574218,0.375 0.164063,0.2109375 0.351563,0.36328125 0.632813,0.36328125 0.984375,0 1.570312,-1.26562504 1.570312,-1.53515624 0,-0.046875 -0.04687,-0.09375 -0.117187,-0.09375 -0.09375,0 -0.117188,0.058594 -0.140625,0.1289062 -0.234375,0.64453129 -0.867188,0.83203129 -1.195313,0.83203129 -0.199218,0 -0.386718,-0.0585938 -0.585937,-0.12890625 -0.339844,-0.12890625 -0.492188,-0.1640625 -0.703125,-0.1640625 -0.02344,0 -0.175781,0 -0.269531,0.0234375 z m 0,0"
             style="fill-opacity:1;fill-rule:nonzero;stroke:none;stroke-opacity:1;fill:#000000" />
        </g>
        <g
           id="07-12-04g16"
           aria-label="1/z"
           transform="matrix(1.3333333,0,0,1.3333333,224.972,78.941333)"
           style="fill-opacity:1;stroke:none;stroke-opacity:1;fill:#000000">
          <path
             id="07-12-04path17"
             d="m 2.9301797,-6.3749453 c 0,-0.234375 0,-0.2578125 -0.234375,-0.2578125 -0.609375,0.6328125 -1.4882813,0.6328125 -1.80468751,0.6328125 v 0.3164062 c 0.19921871,0 0.78515621,0 1.30078121,-0.2578125 v 5.15625004 c 0,0.3515625 -0.035156,0.48046875 -0.9257812,0.48046875 H 0.94971094 V 5.46875e-5 C 1.3012734,-0.03510156 2.1567422,-0.03510156 2.5551797,-0.03510156 c 0.3984375,0 1.265625,0 1.6171875,0.0351562475 V -0.30463281 H 3.8559609 c -0.9023437,0 -0.9257812,-0.1171875 -0.9257812,-0.48046875 z m 0,0"
             style="fill-opacity:1;fill-rule:nonzero;stroke:none;stroke-opacity:1;fill:#000000" />
          <path
             id="07-12-04path18"
             d="M 9.349125,-7.0897891 C 9.396,-7.2186953 9.396,-7.2655703 9.396,-7.2772891 c 0,-0.1054687 -0.082031,-0.1992187 -0.1992187,-0.1992187 -0.070312,0 -0.1289063,0.035156 -0.1640625,0.09375 L 5.5756875,2.1094297 c -0.046875,0.1289062 -0.046875,0.1757812 -0.046875,0.1875 0,0.1054687 0.082031,0.1992187 0.1992188,0.1992187 0.1289062,0 0.1523437,-0.070312 0.2109375,-0.2460937 z m 1.927734,6.25781254 c 0.539063,-0.57421874 0.832032,-0.82031254 1.183594,-1.12500004 0,-0.011719 0.621094,-0.5390625 0.984375,-0.9023437 0.9375,-0.9257813 1.160156,-1.40625 1.160156,-1.4414063 0,-0.1054687 -0.09375,-0.1054687 -0.105468,-0.1054687 -0.07031,0 -0.105469,0.023437 -0.152344,0.1171875 -0.304688,0.46875 -0.503906,0.6328125 -0.75,0.6328125 -0.234375,0 -0.351563,-0.1523438 -0.503906,-0.3164063 -0.1875,-0.234375 -0.363282,-0.4335937 -0.691407,-0.4335937 -0.75,0 -1.207031,0.9257812 -1.207031,1.1367187 0,0.046875 0.03516,0.1171875 0.117188,0.1171875 0.09375,0 0.117187,-0.058594 0.140625,-0.1171875 0.1875,-0.4570312 0.761718,-0.46875 0.84375,-0.46875 0.210937,0 0.398437,0.070312 0.621093,0.1523438 0.398438,0.1523437 0.515625,0.1523437 0.773438,0.1523437 -0.363281,0.421875 -1.195313,1.1367188 -1.382813,1.3007813 l -0.902343,0.8320312 c -0.679688,0.66796879 -1.019532,1.24218754 -1.019532,1.31250004 0,0.09375 0.09375,0.09375 0.117188,0.09375 0.08203,0 0.09375,-0.01171875 0.152344,-0.12890625 0.234375,-0.33984375 0.527343,-0.609375 0.855468,-0.609375 0.222657,0 0.328125,0.0820313 0.574219,0.375 0.164063,0.2109375 0.351563,0.36328125 0.632813,0.36328125 0.984375,0 1.570312,-1.26562504 1.570312,-1.53515624 0,-0.046875 -0.04687,-0.09375 -0.117187,-0.09375 -0.09375,0 -0.117188,0.058594 -0.140625,0.1289062 -0.234375,0.64453129 -0.867188,0.83203129 -1.195313,0.83203129 -0.199219,0 -0.386719,-0.0585938 -0.585937,-0.12890625 -0.339844,-0.12890625 -0.492188,-0.1640625 -0.703125,-0.1640625 -0.02344,0 -0.175782,0 -0.269532,0.0234375 z m 0,0"
             style="fill-opacity:1;fill-rule:nonzero;stroke:none;stroke-opacity:1;fill:#000000" />
        </g>
        <path
           id="07-12-04path20"
           d="m 4.0767953,-2.2955359 h 2.7773438 c 0.140625,0 0.328125,0 0.328125,-0.1992188 0,-0.1992187 -0.1875,-0.1992187 -0.328125,-0.1992187 H 4.0767953 v -2.7890625 c 0,-0.1289063 0,-0.328125 -0.1992187,-0.328125 -0.1992188,0 -0.1992188,0.1992187 -0.1992188,0.328125 v 2.7890625 H 0.88929531 c -0.140625,0 -0.328125,0 -0.328125,0.1992187 0,0.1992188 0.1875,0.1992188 0.328125,0.1992188 H 3.6783578 v 2.80078121 c 0,0.12890625 0,0.328125 0.1992188,0.328125 0.1992187,0 0.1992187,-0.19921875 0.1992187,-0.328125 z m 0,0"
           style="fill-opacity:1;fill-rule:nonzero;stroke:none;stroke-opacity:1;fill:#000000"
           aria-label="+"
           transform="matrix(1.3333333,0,0,1.3333333,59.747867,135.63493)" />
        <g
           id="07-12-04g21"
           aria-label="−a&#10;1"
           transform="matrix(1.3333333,0,0,1.3333333,109.95107,135.19227)"
           style="fill-opacity:1;stroke:none;stroke-opacity:1;fill:#000000">
          <path
             id="07-12-04path22"
             d="m 6.5611141,-2.2975203 c 0.1757812,0 0.3515625,0 0.3515625,-0.1992188 0,-0.1992187 -0.1757813,-0.1992187 -0.3515625,-0.1992187 h -5.390625 c -0.1640625,0 -0.33984379,0 -0.33984379,0.1992187 0,0.1992188 0.17578129,0.1992188 0.33984379,0.1992188 z m 0,0"
             style="fill-opacity:1;fill-rule:nonzero;stroke:none;stroke-opacity:1;fill:#000000" />
          <path
             id="07-12-04path23"
             d="m 11.462481,-3.7623641 c -0.175781,-0.375 -0.46875,-0.6445312 -0.914062,-0.6445312 -1.1718753,0 -2.402344,1.4648437 -2.402344,2.9179687 0,0.93750004 0.5507812,1.59375004 1.3242187,1.59375004 0.1992188,0 0.7031253,-0.03515625 1.3007813,-0.73828125 0.07031,0.41015625 0.421875,0.73828125 0.902344,0.73828125 0.351562,0 0.574218,-0.22265625 0.738281,-0.5390625 0.164062,-0.36328125 0.292969,-0.97265624 0.292969,-0.99609374 0,-0.09375 -0.08203,-0.09375 -0.117188,-0.09375 -0.09375,0 -0.105469,0.035156 -0.140625,0.1757812 -0.164062,0.64453129 -0.351562,1.24218754 -0.75,1.24218754 -0.269531,0 -0.304687,-0.2578125 -0.304687,-0.45703125 0,-0.22265625 0.02344,-0.3046875 0.128906,-0.73828129 0.117187,-0.421875 0.128906,-0.5273437 0.222656,-0.9023437 l 0.351563,-1.3945313 c 0.07031,-0.28125 0.07031,-0.2929687 0.07031,-0.3398437 0,-0.1640625 -0.117187,-0.2695313 -0.28125,-0.2695313 -0.246094,0 -0.386719,0.2226563 -0.421875,0.4453125 z m -0.644531,2.578125 c -0.04687,0.1757813 -0.04687,0.19921879 -0.199219,0.36328129 -0.445312,0.55078125 -0.8437498,0.71484375 -1.1249998,0.71484375 -0.5039062,0 -0.6445312,-0.55078125 -0.6445312,-0.93750004 0,-0.5039062 0.328125,-1.7226562 0.5507812,-2.1796875 0.3046875,-0.5976562 0.7617188,-0.9609375 1.1601558,-0.9609375 0.644532,0 0.785157,0.8203125 0.785157,0.8789063 0,0.058594 -0.02344,0.1171875 -0.03516,0.1640625 z m 0,0"
             style="fill-opacity:1;fill-rule:nonzero;stroke:none;stroke-opacity:1;fill:#000000" />
          <path
             id="07-12-04path24"
             d="m 15.347247,-2.9361922 c 0,-0.1875 -0.01172,-0.1992187 -0.210938,-0.1992187 -0.445312,0.4335937 -1.078125,0.4453125 -1.359375,0.4453125 v 0.2460937 c 0.164063,0 0.621094,0 1.007813,-0.1875 v 3.55078126 c 0,0.23437504 0,0.32812504 -0.691406,0.32812504 h -0.269532 v 0.2460937 c 0.128907,-0.011719 0.984375,-0.023437 1.242188,-0.023437 0.210937,0 1.089844,0.011719 1.242187,0.023437 V 1.2474016 h -0.257812 c -0.703125,0 -0.703125,-0.09375 -0.703125,-0.32812504 z m 0,0"
             style="fill-opacity:1;fill-rule:nonzero;stroke:none;stroke-opacity:1;fill:#000000" />
        </g>
        <g
           id="07-12-04g27"
           aria-label="+b&#10;1"
           transform="matrix(1.3333333,0,0,1.3333333,280.692,135.92973)"
           style="fill-opacity:1;stroke:none;stroke-opacity:1;fill:#000000">
          <path
             id="07-12-04path28"
             d="m 4.0776797,-2.2969094 h 2.7773437 c 0.140625,0 0.328125,0 0.328125,-0.1992187 0,-0.1992188 -0.1875,-0.1992188 -0.328125,-0.1992188 H 4.0776797 v -2.7890625 c 0,-0.1289062 0,-0.328125 -0.1992188,-0.328125 -0.1992187,0 -0.1992187,0.1992188 -0.1992187,0.328125 v 2.7890625 H 0.89017969 c -0.140625,0 -0.328125,0 -0.328125,0.1992188 0,0.1992187 0.1875,0.1992187 0.328125,0.1992187 H 3.6792422 v 2.80078127 c 0,0.12890625 0,0.328125 0.1992187,0.328125 0.1992188,0 0.1992188,-0.19921875 0.1992188,-0.328125 z m 0,0"
             style="fill-opacity:1;fill-rule:nonzero;stroke:none;stroke-opacity:1;fill:#000000" />
          <path
             id="07-12-04path29"
             d="m 10.127484,-6.8086281 c 0,0 0,-0.1054688 -0.1289059,-0.1054688 -0.2226562,0 -0.9492187,0.082031 -1.21875,0.1054688 -0.070312,0 -0.1875,0.011719 -0.1875,0.1992187 0,0.1171875 0.09375,0.1171875 0.2460938,0.1171875 0.46875,0 0.4921875,0.070312 0.4921875,0.1640625 0,0.070312 -0.082031,0.4101563 -0.140625,0.6210938 l -0.8085938,3.2460937 c -0.1289062,0.5039063 -0.1640625,0.65625 -0.1640625,1.0078125 0,0.94921877 0.5273438,1.55859377 1.265625,1.55859377 1.1718749,0 2.4023439,-1.47656247 2.4023439,-2.91796877 0,-0.9023437 -0.527344,-1.59375 -1.324219,-1.59375 -0.457031,0 -0.8671874,0.2929688 -1.1718749,0.5976563 z m -0.9374996,3.7734375 c 0.058594,-0.2226563 0.058594,-0.2460938 0.1523437,-0.3515625 0.4921875,-0.6445313 0.9374999,-0.796875 1.1953129,-0.796875 0.363281,0 0.632812,0.2929687 0.632812,0.9375 0,0.5859375 -0.328125,1.734375 -0.515625,2.109375 -0.328125,0.66796872 -0.7851561,1.03124997 -1.1718749,1.03124997 -0.3398437,0 -0.6679687,-0.26953125 -0.6679687,-1.00781247 0,-0.1875 0,-0.3867188 0.1640625,-1.0078125 z m 0,0"
             style="fill-opacity:1;fill-rule:nonzero;stroke:none;stroke-opacity:1;fill:#000000" />
          <path
             id="07-12-04path30"
             d="m 14.355023,-2.9355813 c 0,-0.1875 -0.01172,-0.1992187 -0.210937,-0.1992187 -0.445313,0.4335937 -1.078125,0.4453125 -1.359375,0.4453125 v 0.2460937 c 0.164062,0 0.621094,0 1.007812,-0.1875 v 3.5507813 c 0,0.234375 0,0.328125 -0.691406,0.328125 h -0.269531 v 0.2460937 c 0.128906,-0.011719 0.984375,-0.023437 1.242187,-0.023437 0.210938,0 1.089844,0.011719 1.242188,0.023437 V 1.2480125 h -0.257813 c -0.703125,0 -0.703125,-0.09375 -0.703125,-0.328125 z m 0,0"
             style="fill-opacity:1;fill-rule:nonzero;stroke:none;stroke-opacity:1;fill:#000000" />
        </g>
        <path
           id="07-12-04path32"
           d="m 4.0772578,-2.2955359 h 2.7773438 c 0.140625,0 0.328125,0 0.328125,-0.1992188 0,-0.1992187 -0.1875,-0.1992187 -0.328125,-0.1992187 H 4.0772578 v -2.7890625 c 0,-0.1289063 0,-0.328125 -0.1992187,-0.328125 -0.1992188,0 -0.1992188,0.1992187 -0.1992188,0.328125 v 2.7890625 H 0.88975781 c -0.140625,0 -0.328125,0 -0.328125,0.1992187 0,0.1992188 0.1875,0.1992188 0.328125,0.1992188 H 3.6788203 v 2.80078121 c 0,0.12890625 0,0.328125 0.1992188,0.328125 0.1992187,0 0.1992187,-0.19921875 0.1992187,-0.328125 z m 0,0"
           style="fill-opacity:1;fill-rule:nonzero;stroke:none;stroke-opacity:1;fill:#000000"
           aria-label="+"
           transform="matrix(1.3333333,0,0,1.3333333,343.216,135.63493)" />
        <g
           id="07-12-04g33"
           aria-label="1/z"
           transform="matrix(1.3333333,0,0,1.3333333,168.27867,192.32827)"
           style="display:inline;fill-opacity:1;stroke:none;stroke-opacity:1;fill:#000000">
          <path
             id="07-12-04path34"
             d="m 2.9286953,-6.3751063 c 0,-0.234375 0,-0.2578125 -0.234375,-0.2578125 -0.609375,0.6328125 -1.4882812,0.6328125 -1.80468749,0.6328125 V -5.6837 c 0.19921879,0 0.78515629,0 1.30078129,-0.2578125 v 5.15625 c 0,0.3515625 -0.035156,0.48046875 -0.9257813,0.48046875 H 0.94822656 v 0.3046875 C 1.2997891,-0.0352625 2.1552578,-0.0352625 2.5536953,-0.0352625 c 0.3984375,0 1.265625,0 1.6171875,0.03515625 v -0.3046875 H 3.8544766 c -0.9023438,0 -0.9257813,-0.1171875 -0.9257813,-0.48046875 z m 0,0"
             style="fill-opacity:1;fill-rule:nonzero;stroke:none;stroke-opacity:1;fill:#000000" />
          <path
             id="07-12-04path35"
             d="m 9.3476406,-7.08995 c 0.046875,-0.1289063 0.046875,-0.1757813 0.046875,-0.1875 0,-0.1054688 -0.082031,-0.1992188 -0.1992187,-0.1992188 -0.070312,0 -0.1289063,0.035156 -0.1640625,0.09375 L 5.5742031,2.1092687 c -0.046875,0.1289063 -0.046875,0.1757813 -0.046875,0.1875 0,0.1054688 0.082031,0.1992188 0.1992188,0.1992188 0.1289062,0 0.1523437,-0.070312 0.2109375,-0.2460938 z m 1.9306644,6.2578125 c 0.539062,-0.5742188 0.832031,-0.8203125 1.183593,-1.125 0,-0.011719 0.621094,-0.5390625 0.984375,-0.9023438 0.9375,-0.9257812 1.160157,-1.40625 1.160157,-1.4414062 0,-0.1054688 -0.09375,-0.1054688 -0.105469,-0.1054688 -0.07031,0 -0.105469,0.023437 -0.152344,0.1171875 -0.304687,0.46875 -0.503906,0.6328125 -0.75,0.6328125 -0.234375,0 -0.351562,-0.1523437 -0.503906,-0.3164062 -0.1875,-0.234375 -0.363281,-0.4335938 -0.691406,-0.4335938 -0.75,0 -1.207032,0.9257813 -1.207032,1.1367188 0,0.046875 0.03516,0.1171875 0.117188,0.1171875 0.09375,0 0.117187,-0.058594 0.140625,-0.1171875 0.1875,-0.4570313 0.761719,-0.46875 0.84375,-0.46875 0.210937,0 0.398437,0.070312 0.621094,0.1523437 0.398437,0.1523438 0.515625,0.1523438 0.773437,0.1523438 -0.363281,0.421875 -1.195312,1.1367187 -1.382812,1.3007812 l -0.902344,0.8320313 c -0.679688,0.66796875 -1.019531,1.2421875 -1.019531,1.3125 0,0.09375 0.09375,0.09375 0.117187,0.09375 0.08203,0 0.09375,-0.01171875 0.152344,-0.12890625 0.234375,-0.33984375 0.527344,-0.609375 0.855469,-0.609375 0.222656,0 0.328125,0.0820313 0.574218,0.375 0.164063,0.2109375 0.351563,0.36328125 0.632813,0.36328125 0.984375,0 1.570312,-1.265625 1.570312,-1.5351563 0,-0.046875 -0.04687,-0.09375 -0.117187,-0.09375 -0.09375,0 -0.117188,0.058594 -0.140625,0.1289063 -0.234375,0.64453125 -0.867188,0.83203125 -1.195313,0.83203125 -0.199218,0 -0.386718,-0.0585938 -0.585937,-0.12890625 -0.339844,-0.12890625 -0.492188,-0.1640625 -0.703125,-0.1640625 -0.02344,0 -0.175781,0 -0.269531,0.0234375 z m 0,0"
             style="fill-opacity:1;fill-rule:nonzero;stroke:none;stroke-opacity:1;fill:#000000" />
        </g>
        <g
           id="07-12-04g36"
           aria-label="1/z"
           transform="matrix(1.3333333,0,0,1.3333333,224.972,192.32827)"
           style="fill-opacity:1;stroke:none;stroke-opacity:1;fill:#000000">
          <path
             id="07-12-04path37"
             d="m 2.9301797,-6.3751063 c 0,-0.234375 0,-0.2578125 -0.234375,-0.2578125 -0.609375,0.6328125 -1.4882813,0.6328125 -1.80468751,0.6328125 V -5.6837 c 0.19921871,0 0.78515621,0 1.30078121,-0.2578125 v 5.15625 c 0,0.3515625 -0.035156,0.48046875 -0.9257812,0.48046875 H 0.94971094 v 0.3046875 C 1.3012734,-0.0352625 2.1567422,-0.0352625 2.5551797,-0.0352625 c 0.3984375,0 1.265625,0 1.6171875,0.03515625 v -0.3046875 H 3.8559609 c -0.9023437,0 -0.9257812,-0.1171875 -0.9257812,-0.48046875 z m 0,0"
             style="fill-opacity:1;fill-rule:nonzero;stroke:none;stroke-opacity:1;fill:#000000" />
          <path
             id="07-12-04path38"
             d="M 9.349125,-7.08995 C 9.396,-7.2188563 9.396,-7.2657313 9.396,-7.27745 c 0,-0.1054688 -0.082031,-0.1992188 -0.1992187,-0.1992188 -0.070312,0 -0.1289063,0.035156 -0.1640625,0.09375 L 5.5756875,2.1092687 c -0.046875,0.1289063 -0.046875,0.1757813 -0.046875,0.1875 0,0.1054688 0.082031,0.1992188 0.1992188,0.1992188 0.1289062,0 0.1523437,-0.070312 0.2109375,-0.2460938 z m 1.927734,6.2578125 c 0.539063,-0.5742188 0.832032,-0.8203125 1.183594,-1.125 0,-0.011719 0.621094,-0.5390625 0.984375,-0.9023438 0.9375,-0.9257812 1.160156,-1.40625 1.160156,-1.4414062 0,-0.1054688 -0.09375,-0.1054688 -0.105468,-0.1054688 -0.07031,0 -0.105469,0.023437 -0.152344,0.1171875 -0.304688,0.46875 -0.503906,0.6328125 -0.75,0.6328125 -0.234375,0 -0.351563,-0.1523437 -0.503906,-0.3164062 -0.1875,-0.234375 -0.363282,-0.4335938 -0.691407,-0.4335938 -0.75,0 -1.207031,0.9257813 -1.207031,1.1367188 0,0.046875 0.03516,0.1171875 0.117188,0.1171875 0.09375,0 0.117187,-0.058594 0.140625,-0.1171875 0.1875,-0.4570313 0.761718,-0.46875 0.84375,-0.46875 0.210937,0 0.398437,0.070312 0.621093,0.1523437 0.398438,0.1523438 0.515625,0.1523438 0.773438,0.1523438 -0.363281,0.421875 -1.195313,1.1367187 -1.382813,1.3007812 l -0.902343,0.8320313 c -0.679688,0.66796875 -1.019532,1.2421875 -1.019532,1.3125 0,0.09375 0.09375,0.09375 0.117188,0.09375 0.08203,0 0.09375,-0.01171875 0.152344,-0.12890625 0.234375,-0.33984375 0.527343,-0.609375 0.855468,-0.609375 0.222657,0 0.328125,0.0820313 0.574219,0.375 0.164063,0.2109375 0.351563,0.36328125 0.632813,0.36328125 0.984375,0 1.570312,-1.265625 1.570312,-1.5351563 0,-0.046875 -0.04687,-0.09375 -0.117187,-0.09375 -0.09375,0 -0.117188,0.058594 -0.140625,0.1289063 -0.234375,0.64453125 -0.867188,0.83203125 -1.195313,0.83203125 -0.199219,0 -0.386719,-0.0585938 -0.585937,-0.12890625 -0.339844,-0.12890625 -0.492188,-0.1640625 -0.703125,-0.1640625 -0.02344,0 -0.175782,0 -0.269532,0.0234375 z m 0,0"
             style="fill-opacity:1;fill-rule:nonzero;stroke:none;stroke-opacity:1;fill:#000000" />
        </g>
        <g
           id="07-12-04g39"
           aria-label="−a&#10;2"
           transform="matrix(1.3333333,0,0,1.3333333,109.95107,248.57927)"
           style="fill-opacity:1;stroke:none;stroke-opacity:1;fill:#000000">
          <path
             id="07-12-04path40"
             d="m 6.5611141,-2.2977313 c 0.1757812,0 0.3515625,0 0.3515625,-0.1992187 0,-0.1992188 -0.1757813,-0.1992188 -0.3515625,-0.1992188 h -5.390625 c -0.1640625,0 -0.33984379,0 -0.33984379,0.1992188 0,0.1992187 0.17578129,0.1992187 0.33984379,0.1992187 z m 0,0"
             style="fill-opacity:1;fill-rule:nonzero;stroke:none;stroke-opacity:1;fill:#000000" />
          <path
             id="07-12-04path41"
             d="m 11.462481,-3.762575 c -0.175781,-0.375 -0.46875,-0.6445313 -0.914062,-0.6445313 -1.1718753,0 -2.402344,1.4648438 -2.402344,2.9179688 0,0.9375 0.5507812,1.59375 1.3242187,1.59375 0.1992188,0 0.7031253,-0.03515625 1.3007813,-0.73828125 0.07031,0.41015625 0.421875,0.73828125 0.902344,0.73828125 0.351562,0 0.574218,-0.22265625 0.738281,-0.5390625 0.164062,-0.36328125 0.292969,-0.9726563 0.292969,-0.9960938 0,-0.09375 -0.08203,-0.09375 -0.117188,-0.09375 -0.09375,0 -0.105469,0.035156 -0.140625,0.1757813 -0.164062,0.64453125 -0.351562,1.2421875 -0.75,1.2421875 -0.269531,0 -0.304687,-0.2578125 -0.304687,-0.45703125 0,-0.22265625 0.02344,-0.3046875 0.128906,-0.73828125 0.117187,-0.421875 0.128906,-0.5273438 0.222656,-0.9023438 l 0.351563,-1.3945312 c 0.07031,-0.28125 0.07031,-0.2929688 0.07031,-0.3398438 0,-0.1640625 -0.117187,-0.2695312 -0.28125,-0.2695312 -0.246094,0 -0.386719,0.2226562 -0.421875,0.4453125 z M 10.81795,-1.18445 c -0.04687,0.1757812 -0.04687,0.19921875 -0.199219,0.36328125 -0.445312,0.55078125 -0.8437498,0.71484375 -1.1249998,0.71484375 -0.5039062,0 -0.6445312,-0.55078125 -0.6445312,-0.9375 0,-0.5039063 0.328125,-1.7226563 0.5507812,-2.1796875 C 9.7046687,-3.8211688 10.1617,-4.18445 10.560137,-4.18445 c 0.644532,0 0.785157,0.8203125 0.785157,0.8789062 0,0.058594 -0.02344,0.1171875 -0.03516,0.1640625 z m 0,0"
             style="fill-opacity:1;fill-rule:nonzero;stroke:none;stroke-opacity:1;fill:#000000" />
          <path
             id="07-12-04path42"
             d="m 16.530841,0.22765937 h -0.234375 c -0.02344,0.15234375 -0.08203,0.5625 -0.175782,0.6328125 -0.05859,0.0351563 -0.597656,0.0351563 -0.691406,0.0351563 h -1.289062 c 0.738281,-0.64453125 0.984375,-0.84375 1.394531,-1.171875 0.515625,-0.41015625 0.996094,-0.84374997 0.996094,-1.50000007 0,-0.84375 -0.738282,-1.359375 -1.628907,-1.359375 -0.867187,0 -1.453125,0.609375 -1.453125,1.2421875 0,0.3632813 0.304688,0.3984375 0.375,0.3984375 0.164063,0 0.375,-0.1171875 0.375,-0.375 0,-0.1289062 -0.05859,-0.3632812 -0.421875,-0.3632812 0.222657,-0.5039063 0.691407,-0.65625 1.019532,-0.65625 0.703125,0 1.066406,0.5507812 1.066406,1.1132813 0,0.609375 -0.433594,1.08984372 -0.65625,1.33593747 l -1.6875,1.66406243 c -0.07031,0.058594 -0.07031,0.070312 -0.07031,0.2695313 h 2.882813 z m 0,0"
             style="fill-opacity:1;fill-rule:nonzero;stroke:none;stroke-opacity:1;fill:#000000" />
        </g>
        <g
           id="07-12-04g45"
           aria-label="+b&#10;2"
           transform="matrix(1.3333333,0,0,1.3333333,280.692,249.31729)"
           style="fill-opacity:1;stroke:none;stroke-opacity:1;fill:#000000">
          <path
             id="07-12-04path46"
             d="m 4.0776797,-2.2975403 h 2.7773437 c 0.140625,0 0.328125,0 0.328125,-0.1992188 0,-0.1992187 -0.1875,-0.1992187 -0.328125,-0.1992187 H 4.0776797 v -2.7890625 c 0,-0.1289063 0,-0.328125 -0.1992188,-0.328125 -0.1992187,0 -0.1992187,0.1992187 -0.1992187,0.328125 v 2.7890625 H 0.89017969 c -0.140625,0 -0.328125,0 -0.328125,0.1992187 0,0.1992188 0.1875,0.1992188 0.328125,0.1992188 H 3.6792422 v 2.80078124 c 0,0.12890625 0,0.328125 0.1992187,0.328125 0.1992188,0 0.1992188,-0.19921875 0.1992188,-0.328125 z m 0,0"
             style="fill-opacity:1;fill-rule:nonzero;stroke:none;stroke-opacity:1;fill:#000000" />
          <path
             id="07-12-04path47"
             d="m 10.127484,-6.8092591 c 0,0 0,-0.1054687 -0.1289059,-0.1054687 -0.2226562,0 -0.9492187,0.082031 -1.21875,0.1054687 -0.070312,0 -0.1875,0.011719 -0.1875,0.1992188 0,0.1171875 0.09375,0.1171875 0.2460938,0.1171875 0.46875,0 0.4921875,0.070312 0.4921875,0.1640625 0,0.070312 -0.082031,0.4101562 -0.140625,0.6210937 l -0.8085938,3.2460938 c -0.1289062,0.5039062 -0.1640625,0.65625 -0.1640625,1.0078125 0,0.94921874 0.5273438,1.55859374 1.265625,1.55859374 1.1718749,0 2.4023439,-1.47656254 2.4023439,-2.91796874 0,-0.9023438 -0.527344,-1.59375 -1.324219,-1.59375 -0.457031,0 -0.8671874,0.2929687 -1.1718749,0.5976562 z m -0.9374996,3.7734375 c 0.058594,-0.2226562 0.058594,-0.2460937 0.1523437,-0.3515625 0.4921875,-0.6445312 0.9374999,-0.796875 1.1953129,-0.796875 0.363281,0 0.632812,0.2929688 0.632812,0.9375 0,0.5859375 -0.328125,1.734375 -0.515625,2.109375 -0.328125,0.66796879 -0.7851561,1.03125004 -1.1718749,1.03125004 -0.3398437,0 -0.6679687,-0.26953125 -0.6679687,-1.00781254 0,-0.1875 0,-0.3867187 0.1640625,-1.0078125 z m 0,0"
             style="fill-opacity:1;fill-rule:nonzero;stroke:none;stroke-opacity:1;fill:#000000" />
          <path
             id="07-12-04path48"
             d="m 15.538617,0.22785031 h -0.234375 c -0.02344,0.15234375 -0.08203,0.5625 -0.175781,0.6328125 -0.05859,0.0351563 -0.597656,0.0351563 -0.691406,0.0351563 h -1.289063 c 0.738281,-0.64453125 0.984375,-0.84375 1.394531,-1.171875 0.515625,-0.41015625 0.996094,-0.84375001 0.996094,-1.50000001 0,-0.84375 -0.738281,-1.359375 -1.628906,-1.359375 -0.867188,0 -1.453125,0.609375 -1.453125,1.2421875 0,0.3632813 0.304687,0.3984375 0.375,0.3984375 0.164062,0 0.375,-0.1171875 0.375,-0.375 0,-0.1289062 -0.05859,-0.3632813 -0.421875,-0.3632813 0.222656,-0.5039062 0.691406,-0.65625 1.019531,-0.65625 0.703125,0 1.066406,0.5507813 1.066406,1.1132813 0,0.609375 -0.433593,1.08984376 -0.65625,1.33593751 l -1.6875,1.66406249 c -0.07031,0.058594 -0.07031,0.070312 -0.07031,0.2695312 H 15.3394 Z m 0,0"
             style="fill-opacity:1;fill-rule:nonzero;stroke:none;stroke-opacity:1;fill:#000000" />
        </g>
        <g
           id="07-12-04g54"
           aria-label="y&#10;p"
           transform="matrix(1.3333333,0,0,1.3333333,200.32133,10.166667)"
           style="fill-opacity:1;stroke:none;stroke-opacity:1;fill:#000000">
          <path
             id="07-12-04path55"
             d="m 4.8390781,-3.7958984 c 0.046875,-0.140625 0.046875,-0.1523438 0.046875,-0.2226563 0,-0.1875 -0.140625,-0.2695312 -0.2929687,-0.2695312 -0.1054688,0 -0.2578125,0.058594 -0.3515625,0.1992187 -0.023437,0.058594 -0.09375,0.3632813 -0.140625,0.5390625 -0.070312,0.2578125 -0.140625,0.5273438 -0.1992188,0.796875 l -0.4453125,1.79296876 c -0.035156,0.15234375 -0.46875,0.85546875 -1.125,0.85546875 -0.5039062,0 -0.6210937,-0.4453125 -0.6210937,-0.80859375 0,-0.45703126 0.1757812,-1.07812496 0.515625,-1.95703126 0.1523437,-0.4101562 0.1992187,-0.515625 0.1992187,-0.7148437 0,-0.4453125 -0.328125,-0.8203125 -0.8203125,-0.8203125 -0.94921872,0 -1.31249997,1.453125 -1.31249997,1.5351562 0,0.1054688 0.09375,0.1054688 0.1171875,0.1054688 0.09375,0 0.10546875,-0.023437 0.15234375,-0.1875 0.26953125,-0.9375 0.66796872,-1.2304688 1.00781252,-1.2304688 0.082031,0 0.2578125,0 0.2578125,0.3164063 0,0.2460937 -0.1054688,0.515625 -0.1757813,0.703125 -0.3984375,1.0546875 -0.5742187,1.6171875 -0.5742187,2.0859375 0,0.89062496 0.6210937,1.18359371 1.21875,1.18359371 0.3867187,0 0.7265625,-0.1640625 0.9960937,-0.4453125 -0.1289062,0.515625 -0.2460937,1.0078125 -0.6445312,1.53515629 -0.2578125,0.3398437 -0.6328125,0.6328125 -1.0898438,0.6328125 -0.140625,0 -0.59765622,-0.035156 -0.76171872,-0.421875 0.1640625,0 0.29296872,0 0.43359372,-0.1171875 0.09375,-0.09375 0.1992188,-0.2226563 0.1992188,-0.41015629 0,-0.31640625 -0.2695313,-0.3515625 -0.375,-0.3515625 -0.22265627,0 -0.55078127,0.1640625 -0.55078127,0.64453129 0,0.5039062 0.43359375,0.8671875 1.05468747,0.8671875 1.0195313,0 2.0507813,-0.9023438 2.3320313,-2.02734379 z m 0,0"
             style="fill-opacity:1;fill-rule:nonzero;stroke:none;stroke-opacity:1;fill:#000000" />
          <path
             id="07-12-04path56"
             d="m 5.4132969,2.3505859 c -0.058594,0.1875 -0.070312,0.2460938 -0.3515625,0.2460938 -0.082031,0 -0.1875,0 -0.1875,0.1523437 0,0.070312 0.070312,0.09375 0.1054687,0.09375 0.1757813,0 0.4101563,-0.023437 0.5976563,-0.023437 0.234375,0 0.5039062,0.023437 0.7265625,0.023437 0.070312,0 0.140625,-0.011719 0.140625,-0.1523437 0,-0.09375 -0.09375,-0.09375 -0.1757813,-0.09375 -0.1523437,0 -0.3398437,0 -0.3398437,-0.082031 0,-0.035156 0.046875,-0.2226562 0.070312,-0.3164062 0.082031,-0.375 0.1875,-0.75 0.2578125,-1.0429688 0.082031,0.140625 0.3046875,0.4101563 0.7265625,0.4101563 0.84375,0 1.78125,-0.93750001 1.78125,-1.98046876 0,-0.82031254 -0.5625,-1.16015624 -1.0429688,-1.16015624 -0.4335937,0 -0.796875,0.2929687 -0.984375,0.4804687 -0.1171875,-0.3984375 -0.515625,-0.4804687 -0.7265625,-0.4804687 -0.2695312,0 -0.4335937,0.1757812 -0.5507812,0.3632812 -0.140625,0.23437504 -0.2460938,0.65625004 -0.2460938,0.70312504 0,0.0820313 0.09375,0.0820313 0.1171875,0.0820313 0.09375,0 0.1054688,-0.0117188 0.1523438,-0.19921875 0.1054687,-0.41015619 0.234375,-0.76171869 0.515625,-0.76171869 0.1757812,0 0.2226562,0.1523437 0.2226562,0.3398437 0,0.0820313 -0.011719,0.17578124 -0.023437,0.21093749 z m 1.3125,-3.09374996 c 0.4101562,-0.53906254 0.75,-0.64453124 0.9726562,-0.64453124 0.28125,0 0.515625,0.2109375 0.515625,0.67968749 0,0.28125 -0.1523437,0.99609375 -0.3632812,1.40625 C 7.6750156,1.0380859 7.3351719,1.3662109 6.9836094,1.3662109 c -0.5039063,0 -0.6210938,-0.53906246 -0.6210938,-0.59765621 0,-0.0351563 0.011719,-0.0820313 0.011719,-0.10546875 z m 0,0"
             style="fill-opacity:1;fill-rule:nonzero;stroke:none;stroke-opacity:1;fill:#000000" />
        </g>
        <path
           id="07-12-04path81"
           d="m 2.6262891,-4.3469625 c -1.2421875,0.2929687 -2.20312504,1.59375 -2.20312504,2.7890625 0,0.9609375 0.63281254,1.67578125 1.57031254,1.67578125 1.1601562,0 1.9921875,-1.55859375 1.9921875,-2.94140625 0,-0.9023438 -0.3984375,-1.3945313 -0.7382813,-1.8515625 C 2.8958203,-5.1204 2.2981641,-5.8704 2.2981641,-6.3039938 c 0,-0.2226562 0.1992187,-0.4570312 0.5507812,-0.4570312 0.3046875,0 0.5039063,0.1289062 0.703125,0.2695312 0.1992188,0.1171875 0.3984375,0.2460938 0.5507813,0.2460938 0.2460937,0 0.3984375,-0.234375 0.3984375,-0.3984375 0,-0.2226563 -0.1523438,-0.2460938 -0.515625,-0.328125 -0.515625,-0.1054688 -0.65625,-0.1054688 -0.8203125,-0.1054688 -0.7734375,0 -1.1367188,0.421875 -1.1367188,1.0195313 0,0.5390625 0.2929688,1.1015625 0.5976563,1.7109375 z m 0.1289062,0.2109375 c 0.2460938,0.4570312 0.5390625,0.9960937 0.5390625,1.7109375 0,0.6679687 -0.375,2.3203125 -1.3007812,2.3203125 -0.5507813,0 -0.9609375,-0.41015625 -0.9609375,-1.171875 0,-0.6210938 0.375,-2.4960938 1.7226562,-2.859375 z m 0,0"
           style="fill-opacity:1;fill-rule:nonzero;stroke:none;stroke-opacity:1;fill:#000000"
           aria-label="δ"
           transform="matrix(1.3333333,0,0,1.3333333,183.26,133.5772)" />
        <path
           id="07-12-04path86"
           d="m 3.2239453,-5.7665187 c 0.1875,0.1757812 0.4101563,0.1757812 0.609375,0.1757812 0.2578125,0 0.890625,0 0.890625,-0.3046875 0,-0.2460937 -0.3984375,-0.2695312 -0.796875,-0.2695312 -0.1054687,0 -0.375,0 -0.6328125,0.09375 -0.058594,-0.1171875 -0.070312,-0.1640625 -0.070312,-0.375 0,-0.140625 0.046875,-0.3515625 0.046875,-0.3632813 0,-0.082031 -0.046875,-0.1289062 -0.1171875,-0.1289062 -0.1875,0 -0.1875,0.4570312 -0.1875,0.4804687 0,0.1757813 0.035156,0.3515625 0.1171875,0.5039063 -1.0546875,0.5273437 -2.62499999,2.3554687 -2.62499999,4.2890625 0,1.40624995 0.90234379,1.6992187 1.62890629,1.94531245 0.2929687,0.10546875 0.3164062,0.10546875 0.609375,0.2109375 0.1992187,0.0703125 0.609375,0.2109375 0.609375,0.66796875 0,0.2695313 -0.1875,0.6679688 -0.5507813,0.6679688 -0.2578125,0 -0.5273437,-0.1289063 -0.7382812,-0.3046875 -0.070313,-0.058594 -0.082031,-0.070312 -0.1171875,-0.070312 -0.058594,0 -0.1054688,0.046875 -0.1054688,0.1054687 0,0.1054688 0.4335938,0.4804688 0.9609375,0.4804688 0.609375,0 1.078125,-0.6328125 1.078125,-1.2070313 0,-0.375 -0.1875,-0.5859375 -0.2695312,-0.66796875 -0.1640625,-0.1875 -0.3515625,-0.24609375 -0.9375,-0.4453125 C 1.8294141,-0.551675 1.6653516,-0.59855 1.4309766,-0.8094875 c -0.421875,-0.375 -0.421875,-0.9492187 -0.421875,-1.1367187 0,-1.546875 1.21875,-3.28125 2.2148437,-3.8203125 z m 0.234375,-0.1171875 C 3.6106641,-5.9423 3.7864453,-5.9423 3.9153516,-5.9423 c 0.328125,0 0.375,0 0.5507812,0.058594 -0.082031,0.023437 -0.1757812,0.070312 -0.6210937,0.070312 -0.2109375,0 -0.28125,0 -0.3867188,-0.070312 z m 0,0"
           style="fill-opacity:1;fill-rule:nonzero;stroke:none;stroke-opacity:1;fill:#000000"
           aria-label="ζ"
           transform="matrix(1.3333333,0,0,1.3333333,183.26,245.67307)" />
        <path
           id="07-12-04path91"
           d="m 1.5351172,-3.0471078 c -1.08984376,0.7148437 -1.30078126,1.6523437 -1.30078126,2.015625 0,0.46874999 0.26953125,0.74999999 0.28125,0.78515624 0.31640625,0.328125 0.41015625,0.36328125 1.16015626,0.64453125 l 1.2070312,0.46875 c 0.140625,0.0703125 0.3398438,0.14062501 0.3398438,0.43359371 0,0.2226563 -0.1757813,0.5273438 -0.4804688,0.5273438 -0.4453125,0 -0.7734375,-0.2460938 -0.8789062,-0.328125 -0.058594,-0.035156 -0.070312,-0.046875 -0.1054688,-0.046875 -0.082031,0 -0.1054687,0.070312 -0.1054687,0.1054687 0,0.1289063 0.5273437,0.4804688 1.0898437,0.4804688 0.609375,0 1.03125,-0.5742188 1.03125,-1.06640626 0,-0.46875 -0.3632812,-0.65625 -0.4804687,-0.703125 -0.140625,-0.046875 -0.46875,-0.17578125 -0.5976563,-0.234375 -0.1992187,-0.0703125 -0.3984375,-0.15234375 -0.609375,-0.22265625 L 1.4882422,-0.43382656 c -0.4570313,-0.17578125 -0.75000001,-0.46875 -0.75000001,-0.87890624 0,-0.4101563 0.38671871,-1.2773438 1.21875001,-1.6992188 0.375,0.1289063 0.6679687,0.1289063 0.8789062,0.1289063 0.3046875,0 0.9257813,0 0.9257813,-0.3046875 0,-0.2460938 -0.421875,-0.2695313 -0.8085938,-0.2695313 -0.1875,0 -0.46875,0 -0.84375,0.1171875 -0.2578125,-0.2578125 -0.2929687,-0.5859375 -0.2929687,-0.7734375 0,-0.5625 0.3515625,-1.3242187 1.1015625,-1.6992187 0.1757812,0.2226562 0.4101562,0.2226562 0.6328125,0.2226562 0.2578125,0 0.890625,0 0.890625,-0.3046875 0,-0.2578125 -0.4335938,-0.2695312 -0.8203125,-0.2695312 -0.1289063,0 -0.375,0 -0.6328125,0.046875 -0.035156,-0.09375 -0.046875,-0.1640625 -0.046875,-0.328125 0,-0.140625 0.046875,-0.3515625 0.046875,-0.3632813 0,-0.082031 -0.046875,-0.1289062 -0.1171875,-0.1289062 -0.1757813,0 -0.1757813,0.4570312 -0.1757813,0.4804687 0,0.1992188 0.058594,0.3515625 0.058594,0.3867188 -1.0546875,0.3046875 -1.734375,1.1015625 -1.734375,1.8632812 0,0.375 0.1757812,0.7851563 0.6445312,1.0546875 z m 1.6171875,-2.8476563 c 0.1523437,-0.046875 0.3632812,-0.046875 0.46875,-0.046875 0.3398437,0 0.3867187,0 0.5625,0.058594 -0.082031,0.023437 -0.1757813,0.070312 -0.6210938,0.070312 -0.1875,0 -0.3046875,0 -0.4101562,-0.082031 z m -0.7851563,2.71875 c 0.234375,-0.058594 0.4570313,-0.058594 0.5742188,-0.058594 0.3515625,0 0.3867187,0.011719 0.5625,0.058594 -0.082031,0.035156 -0.1757813,0.082031 -0.6328125,0.082031 -0.234375,0 -0.3164063,0 -0.5039063,-0.082031 z m 0,0"
           style="fill-opacity:1;fill-rule:nonzero;stroke:none;stroke-opacity:1;fill:#000000"
           aria-label="ξ"
           transform="matrix(1.3333333,0,0,1.3333333,223.61333,132.28547)" />
        <path
           id="07-12-04path96"
           d="m 3.5496484,-2.9057472 c 0.4101563,1.0429688 0.890625,2.56640626 1.0546875,2.80078126 0.1523438,0.2109375 0.2578125,0.2109375 0.5273438,0.2109375 h 0.2109375 c 0.1054687,0 0.1171875,-0.0703125 0.1171875,-0.09375 0,-0.03515625 -0.023437,-0.046875 -0.046875,-0.09375 -0.1054688,-0.10546875 -0.1640625,-0.2578125 -0.234375,-0.45703125 L 3.1512109,-6.2104347 c -0.2109375,-0.5742187 -0.75,-0.703125 -1.21875,-0.703125 -0.046875,0 -0.1757812,0 -0.1757812,0.1054688 0,0.082031 0.070312,0.1054687 0.082031,0.1054687 0.328125,0.058594 0.3984375,0.1171875 0.65625,0.796875 l 0.9609375,2.7070313 -2.75390621,2.73046871 c -0.1171875,0.1171875 -0.17578125,0.17578125 -0.17578125,0.3046875 0,0.17578125 0.140625,0.29296875 0.3046875,0.29296875 0.15234375,0 0.24609376,-0.10546875 0.32812496,-0.2109375 z m 0,0"
           style="fill-opacity:1;fill-rule:nonzero;stroke:none;stroke-opacity:1;fill:#000000"
           aria-label="λ"
           transform="matrix(1.3333333,0,0,1.3333333,222.28667,246.96417)" />
      </g>
    </g>
    <g
       id="07-12-04g108"
       style="stroke:#000000;stroke-opacity:1;fill:none"
       class="has-stroke">
      <g
         id="07-12-04g107"
         style="display:inline;fill:none;fill-opacity:1;stroke:#000000;stroke-opacity:1;stroke-width:1;stroke-dasharray:none">
        <path
           id="07-12-04path49"
           d="M 125.316,1804.25 H 362.715"
           transform="matrix(0.13333333,0,0,-0.13333333,0,259.49333)"
           style="fill:none;fill-opacity:1;stroke:#000000;stroke-opacity:1;stroke-width:7.50000019;stroke-dasharray:none" />
        <path
           id="07-12-04path51"
           d="M 569.887,1804.25 H 1271.04"
           transform="matrix(0.13333333,0,0,-0.13333333,0,259.49333)"
           style="fill:none;fill-opacity:1;stroke:#000000;stroke-opacity:1;stroke-width:7.50000019;stroke-dasharray:none" />
        <path
           id="07-12-04path53"
           d="m 1362.38,1804.25 h 333.85"
           transform="matrix(0.13333333,0,0,-0.13333333,0,259.49333)"
           style="fill:none;fill-opacity:1;stroke:#000000;stroke-opacity:1;stroke-width:7.50000019;stroke-dasharray:none" />
        <path
           id="07-12-04path57"
           d="m 1787.58,1804.25 h 205.55"
           transform="matrix(0.13333333,0,0,-0.13333333,0,259.49333)"
           style="fill:none;fill-opacity:1;stroke:#000000;stroke-opacity:1;stroke-width:7.50000019;stroke-dasharray:none" />
        <path
           id="07-12-04path59"
           d="m 2341.09,1804.25 h 147.64"
           transform="matrix(0.13333333,0,0,-0.13333333,0,259.49333)"
           style="fill:none;fill-opacity:1;stroke:#000000;stroke-opacity:1;stroke-width:7.50000019;stroke-dasharray:none" />
        <path
           id="07-12-04path61"
           d="m 2695.89,1804.25 h 239.66"
           transform="matrix(0.13333333,0,0,-0.13333333,0,259.49333)"
           style="fill:none;fill-opacity:1;stroke:#000000;stroke-opacity:1;stroke-width:7.50000019;stroke-dasharray:none" />
        <path
           id="07-12-04path63"
           d="M 758.629,953.844 H 610.988"
           transform="matrix(0.13333333,0,0,-0.13333333,0,259.49333)"
           style="fill:none;fill-opacity:1;stroke:#000000;stroke-opacity:1;stroke-width:7.50000019;stroke-dasharray:none" />
        <path
           id="07-12-04path65"
           d="M 1312.14,953.844 H 1106.59"
           transform="matrix(0.13333333,0,0,-0.13333333,0,259.49333)"
           style="fill:none;fill-opacity:1;stroke:#000000;stroke-opacity:1;stroke-width:7.50000019;stroke-dasharray:none" />
        <path
           id="07-12-04path67"
           d="m 1787.58,953.844 h 205.55"
           transform="matrix(0.13333333,0,0,-0.13333333,0,259.49333)"
           style="fill:none;fill-opacity:1;stroke:#000000;stroke-opacity:1;stroke-width:7.50000019;stroke-dasharray:none" />
        <path
           id="07-12-04path69"
           d="m 2341.09,953.844 h 147.64"
           transform="matrix(0.13333333,0,0,-0.13333333,0,259.49333)"
           style="fill:none;fill-opacity:1;stroke:#000000;stroke-opacity:1;stroke-width:7.50000019;stroke-dasharray:none" />
        <path
           id="07-12-04path71"
           d="M 1312.14,103.441 H 1106.59"
           transform="matrix(0.13333333,0,0,-0.13333333,0,259.49333)"
           style="fill:none;fill-opacity:1;stroke:#000000;stroke-opacity:1;stroke-width:7.50000019;stroke-dasharray:none" />
        <path
           id="07-12-04path73"
           d="m 1787.58,103.441 h 205.55"
           transform="matrix(0.13333333,0,0,-0.13333333,0,259.49333)"
           style="fill:none;fill-opacity:1;stroke:#000000;stroke-opacity:1;stroke-width:7.50000019;stroke-dasharray:none" />
        <path
           id="07-12-04path75"
           d="m 486.852,1036.88 v 643.23"
           transform="matrix(0.13333333,0,0,-0.13333333,0,259.49333)"
           style="fill:none;fill-opacity:1;stroke:#000000;stroke-opacity:1;stroke-width:7.50000019;stroke-dasharray:none" />
        <path
           id="07-12-04path77"
           d="M 1337.26,1779.13 V 1523.77"
           transform="matrix(0.13333333,0,0,-0.13333333,0,259.49333)"
           style="fill:none;fill-opacity:1;stroke:#000000;stroke-opacity:1;stroke-width:7.50000019;stroke-dasharray:none" />
        <path
           id="07-12-04path79"
           d="M 1337.26,1275.43 V 1020.07"
           transform="matrix(0.13333333,0,0,-0.13333333,0,259.49333)"
           style="fill:none;fill-opacity:1;stroke:#000000;stroke-opacity:1;stroke-width:7.50000019;stroke-dasharray:none" />
        <path
           id="07-12-04path82"
           d="M 1337.26,928.727 V 673.359"
           transform="matrix(0.13333333,0,0,-0.13333333,0,259.49333)"
           style="fill:none;fill-opacity:1;stroke:#000000;stroke-opacity:1;stroke-width:7.50000019;stroke-dasharray:none" />
        <path
           id="07-12-04path84"
           d="M 1337.26,425.031 V 169.664"
           transform="matrix(0.13333333,0,0,-0.13333333,0,259.49333)"
           style="fill:none;fill-opacity:1;stroke:#000000;stroke-opacity:1;stroke-width:7.50000019;stroke-dasharray:none" />
        <path
           id="07-12-04path87"
           d="M 1762.46,1779.13 V 1523.77"
           transform="matrix(0.13333333,0,0,-0.13333333,0,259.49333)"
           style="fill:none;fill-opacity:1;stroke:#000000;stroke-opacity:1;stroke-width:7.50000019;stroke-dasharray:none" />
        <path
           id="07-12-04path89"
           d="M 1762.46,1275.43 V 1020.07"
           transform="matrix(0.13333333,0,0,-0.13333333,0,259.49333)"
           style="fill:none;fill-opacity:1;stroke:#000000;stroke-opacity:1;stroke-width:7.50000019;stroke-dasharray:none" />
        <path
           id="07-12-04path92"
           d="M 1762.46,928.727 V 673.359"
           transform="matrix(0.13333333,0,0,-0.13333333,0,259.49333)"
           style="fill:none;fill-opacity:1;stroke:#000000;stroke-opacity:1;stroke-width:7.50000019;stroke-dasharray:none" />
        <path
           id="07-12-04path94"
           d="M 1762.46,425.031 V 169.664"
           transform="matrix(0.13333333,0,0,-0.13333333,0,259.49333)"
           style="fill:none;fill-opacity:1;stroke:#000000;stroke-opacity:1;stroke-width:7.50000019;stroke-dasharray:none" />
        <path
           id="07-12-04path97"
           d="m 2612.86,1036.88 v 643.23"
           transform="matrix(0.13333333,0,0,-0.13333333,0,259.49333)"
           style="fill:none;fill-opacity:1;stroke:#000000;stroke-opacity:1;stroke-width:7.50000019;stroke-dasharray:none" />
        <path
           id="07-12-04path99"
           d="M 758.629,103.441 H 486.852 v 726.27"
           transform="matrix(0.13333333,0,0,-0.13333333,0,259.49333)"
           style="fill:none;fill-opacity:1;stroke:#000000;stroke-opacity:1;stroke-width:7.50000019;stroke-dasharray:none" />
        <path
           id="07-12-04path101"
           d="m 2341.09,103.441 h 271.77 v 726.27"
           transform="matrix(0.13333333,0,0,-0.13333333,0,259.49333)"
           style="fill:none;fill-opacity:1;stroke:#000000;stroke-opacity:1;stroke-width:7.50000019;stroke-dasharray:none" />
      </g>
      <g
         id="07-12-04g106"
         style="display:inline;fill:none;fill-opacity:1;stroke:#000000;stroke-opacity:1;stroke-width:1;stroke-dasharray:none">
        <path
           id="07-12-04path4"
           d="m 1358.39,1804.25 c 0,11.67 -9.46,21.13 -21.13,21.13 -11.67,0 -21.14,-9.46 -21.14,-21.13 0,-11.67 9.47,-21.13 21.14,-21.13 11.67,0 21.13,9.46 21.13,21.13 z"
           transform="matrix(0.13333333,0,0,-0.13333333,0,259.49333)"
           style="fill:none;fill-opacity:1;stroke:#000000;stroke-opacity:1;stroke-width:7.50000019;stroke-dasharray:none" />
        <path
           id="07-12-04path5"
           d="m 1783.59,1804.25 c 0,11.67 -9.46,21.13 -21.13,21.13 -11.67,0 -21.14,-9.46 -21.14,-21.13 0,-11.67 9.47,-21.13 21.14,-21.13 11.67,0 21.13,9.46 21.13,21.13 z"
           transform="matrix(0.13333333,0,0,-0.13333333,0,259.49333)"
           style="fill:none;fill-opacity:1;stroke:#000000;stroke-opacity:1;stroke-width:7.50000019;stroke-dasharray:none" />
        <path
           id="07-12-04path25"
           d="m 1358.39,953.844 c 0,11.676 -9.46,21.136 -21.13,21.136 -11.67,0 -21.14,-9.46 -21.14,-21.136 0,-11.672 9.47,-21.133 21.14,-21.133 11.67,0 21.13,9.461 21.13,21.133 z"
           transform="matrix(0.13333333,0,0,-0.13333333,0,259.49333)"
           style="fill:none;fill-opacity:1;stroke:#000000;stroke-opacity:1;stroke-width:7.50000019;stroke-dasharray:none" />
        <path
           id="07-12-04path26"
           d="m 1783.59,953.844 c 0,11.676 -9.46,21.136 -21.13,21.136 -11.67,0 -21.14,-9.46 -21.14,-21.136 0,-11.672 9.47,-21.133 21.14,-21.133 11.67,0 21.13,9.461 21.13,21.133 z"
           transform="matrix(0.13333333,0,0,-0.13333333,0,259.49333)"
           style="fill:none;fill-opacity:1;stroke:#000000;stroke-opacity:1;stroke-width:7.50000019;stroke-dasharray:none" />
        <path
           id="07-12-04path43"
           d="m 1358.39,103.441 c 0,11.672 -9.46,21.133 -21.13,21.133 -11.67,0 -21.14,-9.461 -21.14,-21.133 0,-11.6715 9.47,-21.1324 21.14,-21.1324 11.67,0 21.13,9.4609 21.13,21.1324 z"
           transform="matrix(0.13333333,0,0,-0.13333333,0,259.49333)"
           style="fill:none;fill-opacity:1;stroke:#000000;stroke-opacity:1;stroke-width:7.50000019;stroke-dasharray:none" />
        <path
           id="07-12-04path44"
           d="m 1783.59,103.441 c 0,11.672 -9.46,21.133 -21.13,21.133 -11.67,0 -21.14,-9.461 -21.14,-21.133 0,-11.6715 9.47,-21.1324 21.14,-21.1324 11.67,0 21.13,9.4609 21.13,21.1324 z"
           transform="matrix(0.13333333,0,0,-0.13333333,0,259.49333)"
           style="fill:none;fill-opacity:1;stroke:#000000;stroke-opacity:1;stroke-width:7.50000019;stroke-dasharray:none" />
      </g>
      <g
         id="07-12-04g105"
         style="display:inline;fill:none;stroke:#000000;stroke-opacity:1;stroke-width:1;stroke-dasharray:none">
        <path
           id="07-12-04path6"
           d="m 2038.22,1704.62 h 298.883 v 199.258 H 2038.22 Z"
           transform="matrix(0.13333333,0,0,-0.13333333,0,259.49333)"
           style="fill:none;stroke:#000000;stroke-opacity:1;stroke-width:7.50000019;stroke-dasharray:none" />
        <path
           id="07-12-04path13"
           d="m 1187.82,1279.42 h 298.883 v 199.254 H 1187.82 Z"
           transform="matrix(0.13333333,0,0,-0.13333333,0,259.49333)"
           style="fill:none;stroke:#000000;stroke-opacity:1;stroke-width:7.50000019;stroke-dasharray:none" />
        <path
           id="07-12-04path16"
           d="m 1613.02,1279.42 h 298.887 v 199.254 H 1613.02 Z"
           transform="matrix(0.13333333,0,0,-0.13333333,0,259.49333)"
           style="fill:none;stroke:#000000;stroke-opacity:1;stroke-width:7.50000019;stroke-dasharray:none" />
        <path
           id="07-12-04path21"
           d="m 762.613,854.219 h 298.883 v 199.254 H 762.613 Z"
           transform="matrix(0.13333333,0,0,-0.13333333,0,259.49333)"
           style="fill:none;stroke:#000000;stroke-opacity:1;stroke-width:7.50000019;stroke-dasharray:none" />
        <path
           id="07-12-04path27"
           d="m 2038.22,854.219 h 298.883 v 199.254 H 2038.22 Z"
           transform="matrix(0.13333333,0,0,-0.13333333,0,259.49333)"
           style="fill:none;stroke:#000000;stroke-opacity:1;stroke-width:7.50000019;stroke-dasharray:none" />
        <path
           id="07-12-04path33"
           d="m 1187.82,429.016 h 298.883 V 628.27 H 1187.82 Z"
           transform="matrix(0.13333333,0,0,-0.13333333,0,259.49333)"
           style="fill:none;stroke:#000000;stroke-opacity:1;stroke-width:7.50000019;stroke-dasharray:none" />
        <path
           id="07-12-04path36"
           d="m 1613.02,429.016 h 298.887 V 628.27 H 1613.02 Z"
           style="display:inline;fill:none;stroke:#000000;stroke-opacity:1;stroke-width:7.50000019;stroke-dasharray:none"
           transform="matrix(0.13333333,0,0,-0.13333333,0,259.49333)" />
        <path
           id="07-12-04path39"
           d="m 762.613,3.8125 h 298.883 v 199.258 H 762.613 Z"
           transform="matrix(0.13333333,0,0,-0.13333333,0,259.49333)"
           style="fill:none;stroke:#000000;stroke-opacity:1;stroke-width:7.50000019;stroke-dasharray:none" />
        <path
           id="07-12-04path45"
           d="m 2038.22,3.8125 h 298.883 v 199.258 H 2038.22 Z"
           transform="matrix(0.13333333,0,0,-0.13333333,0,259.49333)"
           style="fill:none;stroke:#000000;stroke-opacity:1;stroke-width:7.50000019;stroke-dasharray:none" />
      </g>
      <g
         id="07-12-04g104"
         style="display:inline;stroke:#000000;stroke-opacity:1;fill:none;stroke-width:1;stroke-dasharray:none">
        <path
           id="07-12-04path2"
           d="m 565.898,1804.25 c 0,43.66 -35.39,79.05 -79.046,79.05 -43.657,0 -79.047,-35.39 -79.047,-79.05 0,-43.66 35.39,-79.05 79.047,-79.05 43.656,0 79.046,35.39 79.046,79.05 z"
           transform="matrix(0.13333333,0,0,-0.13333333,0,259.49333)"
           style="stroke:#000000;stroke-opacity:1;fill:none;stroke-width:7.50000019;stroke-dasharray:none" />
        <path
           id="07-12-04path10"
           d="m 2691.91,1804.25 c 0,43.66 -35.39,79.05 -79.05,79.05 -43.65,0 -79.04,-35.39 -79.04,-79.05 0,-43.66 35.39,-79.05 79.04,-79.05 43.66,0 79.05,35.39 79.05,79.05 z"
           transform="matrix(0.13333333,0,0,-0.13333333,0,259.49333)"
           style="stroke:#000000;stroke-opacity:1;fill:none;stroke-width:7.50000019;stroke-dasharray:none" />
        <path
           id="07-12-04path19"
           d="m 565.898,953.844 c 0,43.66 -35.39,79.046 -79.046,79.046 -43.657,0 -79.047,-35.386 -79.047,-79.046 0,-43.656 35.39,-79.047 79.047,-79.047 43.656,0 79.046,35.391 79.046,79.047 z"
           transform="matrix(0.13333333,0,0,-0.13333333,0,259.49333)"
           style="stroke:#000000;stroke-opacity:1;fill:none;stroke-width:7.50000019;stroke-dasharray:none" />
        <path
           id="07-12-04path31"
           d="m 2691.91,953.844 c 0,43.66 -35.39,79.046 -79.05,79.046 -43.65,0 -79.04,-35.386 -79.04,-79.046 0,-43.656 35.39,-79.047 79.04,-79.047 43.66,0 79.05,35.391 79.05,79.047 z"
           transform="matrix(0.13333333,0,0,-0.13333333,0,259.49333)"
           style="stroke:#000000;stroke-opacity:1;fill:none;stroke-width:7.50000019;stroke-dasharray:none" />
      </g>
    </g>
  </g>
</svg>
